<svg width="1600" height="960" viewBox="0 0 1600 960" fill="none" xmlns="http://www.w3.org/2000/svg">
<g clip-path="url(#clip0_3_2)">
<path opacity="0.5" fill-rule="evenodd" clip-rule="evenodd" d="M272.5 570C263.387 570 256 577.387 256 586.5C256 595.613 263.387 603 272.5 603L318.372 603C319.977 610.432 326.588 616 334.5 616L405.5 616C414.613 616 422 608.613 422 599.5C422 590.387 414.613 583 405.5 583L359.628 583C358.023 575.568 351.412 570 343.5 570L272.5 570Z" fill="white"/>
<path opacity="0.5" fill-rule="evenodd" clip-rule="evenodd" d="M-97.3804 392C-112.634 392 -125 404.366 -125 419.62C-125 434.873 -112.634 447.239 -97.3804 447.239L-20.5948 447.239C-17.9079 459.679 -6.84138 469 6.40219 469L125.25 469C140.504 469 152.87 456.634 152.87 441.38C152.87 426.127 140.504 413.761 125.25 413.761L48.4643 413.761C45.7775 401.321 34.711 392 21.4674 392L-97.3804 392Z" fill="white"/>
<path opacity="0.5" fill-rule="evenodd" clip-rule="evenodd" d="M-82.5799 65.2439L-146.823 65.2439C-174.535 65.2439 -197 42.779 -197 15.0671C-197 -12.6448 -174.535 -35.1098 -146.823 -35.1098L-86.3375 -35.1098C-85.655 -62.2271 -63.4586 -84 -36.1768 -84L174.823 -84C202.535 -84 225 -61.5351 225 -33.8232C225 -19.0105 218.581 -5.69701 208.374 3.48782C218.581 12.6726 225 25.9861 225 40.7988C225 68.5107 202.535 90.9756 174.823 90.9756L-38.75 90.9756C-57.5868 90.9756 -73.9993 80.5958 -82.5799 65.2439Z" fill="white"/>
<path opacity="0.5" fill-rule="evenodd" clip-rule="evenodd" d="M-230.58 302.244L-294.823 302.244C-322.535 302.244 -345 279.779 -345 252.067C-345 224.355 -322.535 201.89 -294.823 201.89L-234.337 201.89C-233.655 174.773 -211.459 153 -184.177 153L26.8231 153C54.535 153 77 175.465 77 203.177C77 217.989 70.5814 231.303 60.3738 240.488C70.5814 249.673 77 262.986 77 277.799C77 305.511 54.535 327.976 26.8231 327.976L-186.75 327.976C-205.587 327.976 -221.999 317.596 -230.58 302.244Z" fill="white"/>
<path opacity="0.5" fill-rule="evenodd" clip-rule="evenodd" d="M1576 468L1546 468C1532.75 468 1522 457.255 1522 444C1522 430.745 1532.75 420 1546 420L1575.01 420C1575.27 407.252 1585.69 397 1598.5 397L1699.5 397C1712.48 397 1723 407.521 1723 420.5C1723 428.21 1719.29 435.052 1713.55 439.337C1718.14 443.626 1721 449.728 1721 456.5C1721 469.479 1710.48 480 1697.5 480L1596.5 480C1587.7 480 1580.03 475.162 1576 468Z" fill="white"/>
<path opacity="0.5" fill-rule="evenodd" clip-rule="evenodd" d="M1456.28 210.494L1410.01 210.494C1389.57 210.494 1373 193.923 1373 173.482C1373 153.041 1389.57 136.47 1410.01 136.47L1454.74 136.47C1455.15 116.811 1471.22 101 1490.98 101L1646.73 101C1666.75 101 1682.98 117.226 1682.98 137.241C1682.98 149.13 1677.25 159.683 1668.41 166.291C1675.47 172.904 1679.89 182.316 1679.89 192.759C1679.89 212.774 1663.67 229 1643.65 229L1487.89 229C1474.32 229 1462.49 221.539 1456.28 210.494Z" fill="white"/>
<path opacity="0.5" fill-rule="evenodd" clip-rule="evenodd" d="M1535 68.3333L1515 68.3333C1506.16 68.3333 1499 61.1699 1499 52.3333C1499 43.4968 1506.16 36.3333 1515 36.3333L1534.34 36.3333C1534.51 27.8348 1541.46 21 1550 21L1617.33 21C1625.99 21 1633 28.0142 1633 36.6667C1633 41.8064 1630.53 46.368 1626.7 49.2248C1629.76 52.0837 1631.67 56.1522 1631.67 60.6667C1631.67 69.3191 1624.65 76.3333 1616 76.3333L1548.67 76.3333C1542.8 76.3333 1537.69 73.1079 1535 68.3333Z" fill="white"/>
<path d="M179 165C198.638 143.604 248.732 100.05 292 97" stroke="white" stroke-width="3"/>
<path d="M1297 501.716C1307.07 503.58 1329.46 510.395 1338.44 522.746" stroke="white" stroke-width="3"/>
<path d="M903.281 836.937C634.42 859.259 292.911 817.044 155.765 793.146V928.781H1465.45V725.716C1390.08 753.489 1172.14 814.615 903.281 836.937Z" fill="#4E4E4E"/>
<path d="M1130.62 833.827H1142.02L1151.32 918.29H1121.18L1130.62 833.827Z" fill="#4E4E4E"/>
<path d="M1130.54 833.827H1141.87L1146.79 879.288H1125.61L1130.54 833.827Z" fill="#4E4E4E"/>
<path d="M1170.51 871.572C1181.88 872.662 1174.34 859.654 1168.85 848.087C1163.35 836.52 1151.46 814.761 1133.21 814.761C1118.25 814.761 1089.91 865.817 1096.55 870.621C1101.86 874.464 1114.32 871.448 1122.62 865.399C1125.11 870.737 1128.87 873.235 1134.84 873.662C1140.81 874.089 1144.3 870.203 1149 865.399C1150.66 867.178 1160.59 870.621 1170.51 871.572Z" fill="#4E4E4E"/>
<path fill-rule="evenodd" clip-rule="evenodd" d="M1168.36 846.793C1161.51 833.961 1149.66 816.955 1132.84 816.955C1124.19 816.955 1111.42 832.676 1102.46 848.166C1108.56 847.579 1115.8 844.786 1121.34 840.749C1124.04 846.548 1128.48 852.578 1134.97 853.042C1141.46 853.506 1146.3 847.456 1150 840.749C1151.52 842.381 1159.45 845.301 1168.36 846.793Z" fill="#4E4E4E"/>
<path d="M1170.51 842.18C1181.39 845.5 1174.34 830.262 1168.85 818.695C1163.35 807.128 1151.46 785.369 1133.21 785.369C1118.25 785.369 1089.91 836.425 1096.55 841.229C1101.86 845.072 1114.32 835.653 1122.62 829.604C1125.11 834.941 1128.87 843.843 1134.84 844.27C1140.81 844.697 1144.3 834.407 1149 829.604C1150.66 831.383 1160.59 839.154 1170.51 842.18Z" fill="#4E4E4E"/>
<path fill-rule="evenodd" clip-rule="evenodd" d="M1163.23 806.807C1165.87 812.142 1167.8 816.047 1167.49 816.018C1159.06 815.212 1149.28 811.671 1147.87 810.165C1144.98 815.393 1140.54 818.722 1135.46 818.361C1130.39 817.999 1125.75 813.977 1123.64 809.456C1116.59 814.579 1103.51 816.486 1104.43 815.08C1106 812.676 1107.47 810.019 1108.86 807.226C1117.27 794.415 1127.51 783.211 1134.81 783.211C1143.64 783.211 1151.09 787.891 1157.18 794.194C1157.49 794.946 1157.81 795.662 1158.13 796.333C1159.86 799.979 1161.67 803.644 1163.23 806.807Z" fill="#4E4E4E"/>
<path d="M1166.99 807.582C1174.88 810.159 1168.99 796.863 1164.53 787.429C1160.07 777.995 1151.23 760.309 1136.45 759.309C1122.62 758.374 1097.56 802.258 1102.95 806.176C1107.26 809.31 1118.68 803.131 1125.42 798.197C1127.44 802.55 1130.49 809.811 1135.34 810.159C1140.19 810.507 1143.02 802.115 1146.84 798.197C1148.19 799.648 1159.96 805.283 1166.99 807.582Z" fill="#4E4E4E"/>
<path d="M1006.78 833.827H1018.18L1027.48 918.29H997.337L1006.78 833.827Z" fill="#4E4E4E"/>
<path d="M1006.7 833.827H1018.03L1022.95 879.288H1001.77L1006.7 833.827Z" fill="#4E4E4E"/>
<path d="M1046.67 871.572C1058.04 872.662 1050.51 859.654 1045.01 848.087C1039.51 836.52 1027.62 814.761 1009.37 814.761C994.413 814.761 966.072 865.817 972.709 870.621C978.019 874.464 990.483 871.448 998.779 865.399C1001.27 870.737 1005.03 873.235 1011 873.662C1016.97 874.089 1020.46 870.203 1025.16 865.399C1026.82 867.178 1036.75 870.621 1046.67 871.572Z" fill="#4E4E4E"/>
<path fill-rule="evenodd" clip-rule="evenodd" d="M1044.52 846.793C1037.67 833.961 1025.82 816.955 1009 816.955C1000.35 816.955 987.582 832.676 978.616 848.166C984.718 847.579 991.962 844.786 997.498 840.749C1000.2 846.548 1004.64 852.578 1011.13 853.042C1017.62 853.506 1022.46 847.456 1026.16 840.749C1027.68 842.381 1035.61 845.301 1044.52 846.793Z" fill="#4E4E4E"/>
<path d="M1046.67 842.18C1057.55 845.5 1050.51 830.262 1045.01 818.695C1039.51 807.128 1027.62 785.369 1009.37 785.369C994.413 785.369 966.072 836.425 972.709 841.229C978.019 845.072 990.483 835.653 998.779 829.604C1001.27 834.941 1005.03 843.843 1011 844.27C1016.97 844.697 1020.46 834.407 1025.16 829.604C1026.82 831.383 1036.75 839.154 1046.67 842.18Z" fill="#4E4E4E"/>
<path fill-rule="evenodd" clip-rule="evenodd" d="M1039.39 806.807C1042.03 812.142 1043.96 816.047 1043.65 816.018C1035.22 815.212 1025.44 811.671 1024.03 810.165C1021.14 815.393 1016.7 818.722 1011.62 818.361C1006.55 817.999 1001.92 813.977 999.8 809.456C992.749 814.579 979.668 816.486 980.587 815.08C982.158 812.676 983.626 810.019 985.024 807.226C993.432 794.415 1003.67 783.211 1010.98 783.211C1019.8 783.211 1027.25 787.891 1033.34 794.194C1033.65 794.946 1033.97 795.662 1034.29 796.333C1036.02 799.979 1037.83 803.644 1039.39 806.807Z" fill="#4E4E4E"/>
<path d="M1043.15 807.582C1051.04 810.159 1045.15 796.863 1040.69 787.429C1036.23 777.995 1027.39 760.309 1012.61 759.309C998.782 758.374 973.718 802.258 979.108 806.176C983.42 809.31 994.839 803.131 1001.58 798.197C1003.6 802.55 1006.65 809.811 1011.5 810.159C1016.35 810.507 1019.18 802.115 1023 798.197C1024.35 799.648 1036.13 805.283 1043.15 807.582Z" fill="#4E4E4E"/>
<path d="M1335.12 833.827H1346.52L1355.82 918.29H1325.67L1335.12 833.827Z" fill="#4E4E4E"/>
<path d="M1335.03 833.827H1346.37L1351.29 879.288H1330.11L1335.03 833.827Z" fill="#4E4E4E"/>
<path d="M1375.01 871.572C1386.38 872.662 1378.84 859.654 1373.35 848.087C1367.85 836.52 1355.96 814.761 1337.71 814.761C1322.75 814.761 1294.41 865.817 1301.05 870.621C1306.36 874.464 1318.82 871.448 1327.12 865.399C1329.6 870.737 1333.36 873.235 1339.34 873.662C1345.31 874.089 1348.79 870.203 1353.49 865.399C1355.15 867.178 1365.09 870.621 1375.01 871.572Z" fill="#4E4E4E"/>
<path fill-rule="evenodd" clip-rule="evenodd" d="M1372.86 846.793C1366.01 833.961 1354.16 816.955 1337.34 816.955C1328.69 816.955 1315.92 832.676 1306.95 848.166C1313.05 847.579 1320.3 844.786 1325.83 840.749C1328.54 846.548 1332.98 852.578 1339.47 853.042C1345.96 853.506 1350.8 847.456 1354.49 840.749C1356.02 842.381 1363.94 845.301 1372.86 846.793Z" fill="#4E4E4E"/>
<path d="M1375.01 842.18C1385.89 845.5 1378.84 830.262 1373.35 818.695C1367.85 807.128 1355.96 785.369 1337.71 785.369C1322.75 785.369 1294.41 836.425 1301.05 841.229C1306.36 845.072 1318.82 835.653 1327.12 829.604C1329.6 834.941 1333.36 843.843 1339.34 844.27C1345.31 844.697 1348.79 834.407 1353.49 829.604C1355.15 831.383 1365.09 839.154 1375.01 842.18Z" fill="#4E4E4E"/>
<path fill-rule="evenodd" clip-rule="evenodd" d="M1367.73 806.807C1370.37 812.142 1372.29 816.047 1371.98 816.018C1363.55 815.212 1353.78 811.671 1352.37 810.165C1349.48 815.393 1345.04 818.722 1339.96 818.361C1334.88 817.999 1330.25 813.977 1328.14 809.456C1321.09 814.579 1308 816.486 1308.92 815.08C1310.49 812.676 1311.96 810.018 1313.36 807.225C1321.77 794.414 1332.01 783.211 1339.31 783.211C1348.14 783.211 1355.59 787.891 1361.67 794.194C1361.99 794.946 1362.3 795.662 1362.62 796.333C1364.36 799.979 1366.17 803.644 1367.73 806.807Z" fill="#4E4E4E"/>
<path d="M1371.49 807.582C1379.37 810.159 1373.49 796.863 1369.03 787.429C1364.56 777.995 1355.73 760.309 1340.95 759.309C1327.12 758.374 1302.06 802.258 1307.45 806.176C1311.76 809.31 1323.18 803.131 1329.91 798.197C1331.94 802.55 1334.99 809.811 1339.84 810.159C1344.69 810.507 1347.52 802.115 1351.34 798.197C1352.68 799.648 1364.46 805.283 1371.49 807.582Z" fill="#4E4E4E"/>
<rect x="1199.53" y="780.344" width="9.22204" height="50.8161" fill="#4E4E4E"/>
<rect x="1199.55" y="761.555" width="9.22204" height="50.8161" fill="#4E4E4E"/>
<path d="M1204.04 752.626L1230.28 805.752H1177.8L1204.04 752.626Z" fill="#4E4E4E"/>
<path d="M1204.07 732.607L1226.31 777.649H1181.82L1204.07 732.607Z" fill="#4E4E4E"/>
<path d="M1212.62 749.76H1195.52L1193 754.675H1215.14L1212.62 749.76Z" fill="#4E4E4E"/>
<path d="M1216.41 777.61H1191.7L1189.35 782.197H1218.78L1216.41 777.61Z" fill="#4E4E4E"/>
<path d="M1204.36 714.129L1222.04 749.931H1186.67L1204.36 714.129Z" fill="#4E4E4E"/>
<rect x="421.795" y="833.929" width="19.7995" height="88.7952" fill="#4E4E4E"/>
<rect x="421.848" y="801.099" width="19.7995" height="88.7952" fill="#4E4E4E"/>
<rect x="396.559" y="799.194" width="71.6553" height="68.166" rx="34.083" fill="#4E4E4E"/>
<rect x="400.167" y="755.786" width="65.5742" height="62.381" rx="31.1905" fill="#4E4E4E"/>
<rect x="404.975" y="722.091" width="55.4564" height="52.7559" rx="26.378" fill="#4E4E4E"/>
<path fill-rule="evenodd" clip-rule="evenodd" d="M396.767 829.591C396.603 830.948 396.518 832.33 396.518 833.732C396.518 852.556 411.777 867.815 430.601 867.815H434.09C452.914 867.815 468.173 852.556 468.173 833.732C468.173 832.33 468.089 830.948 467.924 829.591C465.881 846.461 451.512 859.532 434.09 859.532H430.601C413.179 859.532 398.811 846.461 396.767 829.591Z" fill="#4E4E4E"/>
<rect x="165.154" y="833.929" width="19.7995" height="88.7952" fill="#4E4E4E"/>
<rect x="165.207" y="801.099" width="19.7995" height="88.7952" fill="#4E4E4E"/>
<rect x="139.919" y="799.194" width="71.6553" height="68.166" rx="34.083" fill="#4E4E4E"/>
<rect x="143.526" y="755.786" width="65.5742" height="62.381" rx="31.1905" fill="#4E4E4E"/>
<rect x="148.335" y="722.091" width="55.4564" height="52.7559" rx="26.378" fill="#4E4E4E"/>
<path fill-rule="evenodd" clip-rule="evenodd" d="M140.127 829.591C139.962 830.948 139.878 832.33 139.878 833.732C139.878 852.556 155.137 867.815 173.961 867.815H177.45C196.273 867.815 211.533 852.556 211.533 833.732C211.533 832.33 211.448 830.948 211.284 829.591C209.24 846.461 194.871 859.532 177.45 859.532H173.961C156.539 859.532 142.17 846.461 140.127 829.591Z" fill="#4E4E4E"/>
<path d="M95.0321 771.307H113.864L129.211 910.762H79.4423L95.0321 771.307Z" fill="#4E4E4E"/>
<path d="M94.8972 771.307H113.606L121.74 846.366H86.7631L94.8972 771.307Z" fill="#4E4E4E"/>
<path fill-rule="evenodd" clip-rule="evenodd" d="M21.0561 706.837C21.0561 685.306 38.5105 667.852 60.0416 667.852H61.2065C82.7376 667.852 100.192 685.306 100.192 706.837C100.192 708.677 100.065 710.487 99.8181 712.259C116.326 716.792 128.455 731.908 128.455 749.856C128.455 771.387 111.001 788.841 89.4694 788.841H88.3045C76.7395 788.841 66.3506 783.806 59.211 775.807C52.0714 783.806 41.6825 788.841 30.1174 788.841H28.9525C7.42141 788.841 -10.033 771.387 -10.033 749.856C-10.033 730.928 3.45603 715.15 21.3456 711.612C21.1545 710.047 21.0561 708.454 21.0561 706.837Z" fill="#4E4E4E"/>
<path fill-rule="evenodd" clip-rule="evenodd" d="M110.243 820.063C96.7081 835.55 72.6584 837.761 56.5266 825.002C40.3947 812.243 38.2896 789.345 51.8245 773.858L53.1148 772.382C54.1033 771.251 55.1478 770.191 56.2412 769.202C47.0275 756.192 47.5502 738.375 58.715 725.6L60.0053 724.124C73.5402 708.637 97.5899 706.426 113.722 719.185C122.446 726.085 127.068 735.951 127.332 746.005C137.772 744.417 148.812 746.939 157.536 753.839C173.668 766.598 175.773 789.496 162.238 804.983L160.947 806.459C149.171 819.934 129.433 823.358 113.878 815.616C113.157 816.632 112.375 817.624 111.533 818.587L110.243 820.063Z" fill="#4E4E4E"/>
<path fill-rule="evenodd" clip-rule="evenodd" d="M100.538 694.723C100.538 672.953 118.186 655.305 139.956 655.305H141.134C162.904 655.305 180.553 672.953 180.553 694.723C180.553 696.584 180.424 698.414 180.175 700.205C196.866 704.789 209.13 720.072 209.13 738.22C209.13 759.99 191.481 777.639 169.711 777.639H168.533C156.84 777.639 146.335 772.547 139.116 764.46C131.897 772.547 121.393 777.639 109.7 777.639H108.522C86.7513 777.639 69.103 759.99 69.103 738.22C69.103 719.082 82.7419 703.129 100.83 699.551C100.637 697.969 100.538 696.358 100.538 694.723Z" fill="#4E4E4E"/>
<path fill-rule="evenodd" clip-rule="evenodd" d="M85.9666 641.229C85.9666 619.459 103.615 601.81 125.385 601.81H126.563C148.334 601.81 165.982 619.459 165.982 641.229C165.982 643.089 165.853 644.919 165.604 646.711C182.296 651.295 194.559 666.578 194.559 684.725C194.559 706.496 176.911 724.144 155.14 724.144H153.962C142.269 724.144 131.764 719.052 124.545 710.965C117.327 719.052 106.822 724.144 95.1286 724.144H93.9507C72.1804 724.144 54.532 706.496 54.532 684.725C54.532 665.587 68.171 649.634 86.2593 646.057C86.0661 644.475 85.9666 642.863 85.9666 641.229Z" fill="#4E4E4E"/>
<path fill-rule="evenodd" clip-rule="evenodd" d="M28.7741 656.628C28.7741 638.765 43.2548 624.284 61.1176 624.284H62.084C79.9469 624.284 94.4276 638.765 94.4276 656.628C94.4276 658.154 94.3219 659.656 94.1174 661.126C107.813 664.887 117.875 677.427 117.875 692.317C117.875 710.18 103.395 724.661 85.5318 724.661H84.5654C74.9706 724.661 66.3517 720.483 60.4285 713.847C54.5052 720.483 45.8863 724.661 36.2916 724.661H35.3251C17.4623 724.661 2.98157 710.18 2.98157 692.317C2.98157 676.614 14.1725 663.525 29.0142 660.589C28.8557 659.291 28.7741 657.969 28.7741 656.628Z" fill="#4E4E4E"/>
<path fill-rule="evenodd" clip-rule="evenodd" d="M134.18 625.351C146.667 637.922 146.107 657.715 132.93 669.561C119.753 681.406 98.9478 680.818 86.4609 668.247L84.978 666.754C84.1097 665.88 83.3044 664.97 82.5621 664.031C69.8953 670.21 53.9465 667.99 43.6517 657.626L42.1688 656.133C29.6819 643.562 30.2416 623.769 43.419 611.923C50.5453 605.517 59.9023 602.748 68.9682 603.543C68.6463 594.888 72.0824 586.157 79.2087 579.751C92.386 567.906 113.191 568.494 125.678 581.066L127.161 582.558C138.021 593.492 139.012 609.889 130.417 621.769C131.203 622.424 131.965 623.12 132.697 623.858L134.18 625.351Z" fill="#4E4E4E"/>
<path fill-rule="evenodd" clip-rule="evenodd" d="M205.223 721.791C199.358 730.123 190.348 736.081 179.918 737.937C178.686 743.658 175.989 749.19 171.78 754.006L170.49 755.482C158.713 768.957 138.976 772.382 123.42 764.639C122.699 765.655 121.918 766.647 121.076 767.61L119.786 769.087C106.251 784.573 82.2011 786.785 66.0692 774.025C56.6369 766.565 52 755.639 52.481 744.754C46.8341 747.936 40.3145 749.751 33.3711 749.751H32.2062C16.8378 749.751 3.54636 740.859 -2.80324 727.938C-7.35512 734.317 -10.033 742.125 -10.033 750.559C-10.033 772.09 7.42141 789.544 28.9525 789.544H30.1174C35.3034 789.544 40.2528 788.532 44.7789 786.693C40.0967 800.412 44.2497 815.994 56.5267 825.705C72.6585 838.464 96.7082 836.253 110.243 820.766L111.533 819.29C112.375 818.326 113.157 817.334 113.878 816.318C129.433 824.061 149.171 820.636 160.948 807.161L162.238 805.685C169.193 797.727 172.018 787.813 170.933 778.323C192.138 777.677 209.13 760.284 209.13 738.923C209.13 732.783 207.726 726.972 205.223 721.791Z" fill="#4E4E4E"/>
<path d="M1320.39 764.332H1339.22L1354.57 903.786H1304.8L1320.39 764.332Z" fill="#4E4E4E"/>
<path d="M1320.25 764.332H1338.96L1347.1 839.39H1312.12L1320.25 764.332Z" fill="#4E4E4E"/>
<path fill-rule="evenodd" clip-rule="evenodd" d="M1246.41 699.862C1246.41 678.331 1263.87 660.876 1285.4 660.876H1286.56C1308.09 660.876 1325.55 678.331 1325.55 699.862C1325.55 701.701 1325.42 703.511 1325.17 705.283C1341.68 709.817 1353.81 724.932 1353.81 742.88C1353.81 764.411 1336.36 781.866 1314.83 781.866H1313.66C1302.1 781.866 1291.71 776.83 1284.57 768.832C1277.43 776.83 1267.04 781.866 1255.47 781.866H1254.31C1232.78 781.866 1215.32 764.411 1215.32 742.88C1215.32 723.952 1228.81 708.175 1246.7 704.636C1246.51 703.072 1246.41 701.478 1246.41 699.862Z" fill="#4E4E4E"/>
<path fill-rule="evenodd" clip-rule="evenodd" d="M1335.6 813.088C1322.06 828.574 1298.01 830.786 1281.88 818.026C1265.75 805.267 1263.65 782.37 1277.18 766.883L1278.47 765.406C1279.46 764.275 1280.5 763.215 1281.6 762.227C1272.38 749.217 1272.91 731.399 1284.07 718.625L1285.36 717.148C1298.9 701.662 1322.95 699.45 1339.08 712.21C1347.8 719.11 1352.42 728.975 1352.69 739.03C1363.13 737.441 1374.17 739.963 1382.89 746.863C1399.02 759.623 1401.13 782.52 1387.59 798.007L1386.3 799.483C1374.53 812.958 1354.79 816.383 1339.23 808.64C1338.51 809.656 1337.73 810.648 1336.89 811.611L1335.6 813.088Z" fill="#4E4E4E"/>
<path fill-rule="evenodd" clip-rule="evenodd" d="M1325.89 687.748C1325.89 665.977 1343.54 648.329 1365.31 648.329H1366.49C1388.26 648.329 1405.91 665.977 1405.91 687.748C1405.91 689.608 1405.78 691.438 1405.53 693.23C1422.22 697.814 1434.49 713.097 1434.49 731.244C1434.49 753.015 1416.84 770.663 1395.07 770.663H1393.89C1382.2 770.663 1371.69 765.571 1364.47 757.484C1357.25 765.571 1346.75 770.663 1335.06 770.663H1333.88C1312.11 770.663 1294.46 753.015 1294.46 731.244C1294.46 712.106 1308.1 696.153 1326.19 692.576C1325.99 690.993 1325.89 689.382 1325.89 687.748Z" fill="#4E4E4E"/>
<path fill-rule="evenodd" clip-rule="evenodd" d="M1311.32 634.253C1311.32 612.483 1328.97 594.835 1350.74 594.835H1351.92C1373.69 594.835 1391.34 612.483 1391.34 634.253C1391.34 636.113 1391.21 637.943 1390.96 639.735C1407.65 644.319 1419.92 659.602 1419.92 677.75C1419.92 699.52 1402.27 717.169 1380.5 717.169H1379.32C1367.62 717.169 1357.12 712.077 1349.9 703.989C1342.68 712.077 1332.18 717.169 1320.48 717.169H1319.31C1297.54 717.169 1279.89 699.52 1279.89 677.75C1279.89 658.612 1293.53 642.659 1311.62 639.081C1311.42 637.499 1311.32 635.888 1311.32 634.253Z" fill="#4E4E4E"/>
<path fill-rule="evenodd" clip-rule="evenodd" d="M1254.13 649.652C1254.13 631.79 1268.61 617.309 1286.47 617.309H1287.44C1305.3 617.309 1319.78 631.79 1319.78 649.652C1319.78 651.179 1319.68 652.68 1319.47 654.15C1333.17 657.911 1343.23 670.452 1343.23 685.342C1343.23 703.205 1328.75 717.685 1310.89 717.685H1309.92C1300.33 717.685 1291.71 713.508 1285.78 706.872C1279.86 713.508 1271.24 717.685 1261.65 717.685H1260.68C1242.82 717.685 1228.34 703.205 1228.34 685.342C1228.34 669.639 1239.53 656.549 1254.37 653.614C1254.21 652.315 1254.13 650.993 1254.13 649.652Z" fill="#4E4E4E"/>
<path fill-rule="evenodd" clip-rule="evenodd" d="M1359.54 618.375C1372.02 630.946 1371.46 650.74 1358.29 662.585C1345.11 674.431 1324.3 673.842 1311.82 661.271L1310.33 659.778C1309.47 658.904 1308.66 657.995 1307.92 657.056C1295.25 663.234 1279.3 661.015 1269.01 650.651L1267.53 649.158C1255.04 636.586 1255.6 616.793 1268.78 604.948C1275.9 598.542 1285.26 595.772 1294.32 596.568C1294 587.912 1297.44 579.182 1304.57 572.776C1317.74 560.93 1338.55 561.519 1351.03 574.09L1352.52 575.583C1363.38 586.517 1364.37 602.914 1355.77 614.793C1356.56 615.448 1357.32 616.145 1358.05 616.882L1359.54 618.375Z" fill="#4E4E4E"/>
<path fill-rule="evenodd" clip-rule="evenodd" d="M1430.58 714.816C1424.71 723.148 1415.7 729.105 1405.27 730.962C1404.04 736.683 1401.35 742.215 1397.14 747.03L1395.85 748.507C1384.07 761.982 1364.33 765.406 1348.78 757.663C1348.06 758.68 1347.27 759.672 1346.43 760.635L1345.14 762.111C1331.61 777.598 1307.56 779.809 1291.43 767.05C1281.99 759.59 1277.36 748.663 1277.84 737.779C1272.19 740.96 1265.67 742.776 1258.73 742.776H1257.56C1242.19 742.776 1228.9 733.883 1222.55 720.963C1218 727.341 1215.32 735.149 1215.32 743.583C1215.32 765.114 1232.78 782.569 1254.31 782.569H1255.47C1260.66 782.569 1265.61 781.556 1270.14 779.718C1265.45 793.437 1269.61 809.019 1281.88 818.729C1298.01 831.488 1322.06 829.277 1335.6 813.79L1336.89 812.314C1337.73 811.351 1338.51 810.359 1339.23 809.343C1354.79 817.085 1374.53 813.661 1386.3 800.186L1387.59 798.709C1394.55 790.752 1397.37 780.837 1396.29 771.347C1417.49 770.702 1434.49 753.309 1434.49 731.947C1434.49 725.808 1433.08 719.996 1430.58 714.816Z" fill="#4E4E4E"/>
<rect x="268.834" y="831.506" width="16.208" height="72.6883" fill="#4E4E4E"/>
<rect x="268.878" y="804.631" width="16.208" height="72.6883" fill="#4E4E4E"/>
<path d="M312.003 834.028C312.003 853.045 295.798 868.461 275.807 868.461C255.817 868.461 239.611 853.045 239.611 834.028C239.611 815.011 255.817 776.639 275.807 776.639C295.798 776.639 312.003 815.011 312.003 834.028Z" fill="#4E4E4E"/>
<path fill-rule="evenodd" clip-rule="evenodd" d="M310.907 825.956C307.486 841.59 292.92 853.336 275.471 853.336C258.021 853.336 243.456 841.59 240.035 825.956C239.537 828.88 239.275 831.61 239.275 834.028C239.275 853.045 255.48 868.461 275.471 868.461C295.461 868.461 311.667 853.045 311.667 834.028C311.667 831.61 311.405 828.88 310.907 825.956Z" fill="#4E4E4E"/>
<path d="M306.08 789.94C306.08 805.386 292.66 817.908 276.104 817.908C259.549 817.908 246.129 805.386 246.129 789.94C246.129 774.494 259.549 743.328 276.104 743.328C292.66 743.328 306.08 774.494 306.08 789.94Z" fill="#4E4E4E"/>
<path d="M298.763 750.457C298.763 762.268 288.439 771.844 275.704 771.844C262.97 771.844 252.646 762.268 252.646 750.457C252.646 738.645 262.97 714.812 275.704 714.812C288.439 714.812 298.763 738.645 298.763 750.457Z" fill="#4E4E4E"/>
<rect x="1270.69" y="816.951" width="21.425" height="96.0852" fill="#4E4E4E"/>
<rect x="1270.75" y="781.426" width="21.425" height="96.0852" fill="#4E4E4E"/>
<path d="M1327.76 820.284C1327.76 845.423 1306.33 865.801 1279.91 865.801C1253.48 865.801 1232.06 845.423 1232.06 820.284C1232.06 795.146 1253.48 744.423 1279.91 744.423C1306.33 744.423 1327.76 795.146 1327.76 820.284Z" fill="#4E4E4E"/>
<path fill-rule="evenodd" clip-rule="evenodd" d="M1326.31 809.615C1321.78 830.281 1302.53 845.808 1279.46 845.808C1256.4 845.808 1237.14 830.281 1232.62 809.615C1231.96 813.48 1231.62 817.089 1231.62 820.285C1231.62 845.423 1253.04 865.801 1279.46 865.801C1305.89 865.801 1327.31 845.423 1327.31 820.285C1327.31 817.089 1326.97 813.48 1326.31 809.615Z" fill="#4E4E4E"/>
<path d="M1319.93 762.006C1319.93 782.424 1302.19 798.976 1280.3 798.976C1258.42 798.976 1240.68 782.424 1240.68 762.006C1240.68 741.588 1258.42 700.39 1280.3 700.39C1302.19 700.39 1319.93 741.588 1319.93 762.006Z" fill="#4E4E4E"/>
<path d="M931.807 859.282H940.822L948.169 926.04H924.344L931.807 859.282Z" fill="#4E4E4E"/>
<path d="M931.742 859.282H940.698L944.592 895.214H927.848L931.742 859.282Z" fill="#4E4E4E"/>
<path d="M963.336 889.115C972.322 889.977 966.368 879.695 962.024 870.553C957.68 861.41 948.281 844.212 933.855 844.212C922.033 844.212 899.633 884.566 904.879 888.363C909.075 891.401 918.927 889.017 925.484 884.236C927.451 888.455 930.421 890.429 935.143 890.767C939.864 891.104 942.618 888.033 946.334 884.236C947.645 885.642 955.495 888.363 963.336 889.115Z" fill="#4E4E4E"/>
<path fill-rule="evenodd" clip-rule="evenodd" d="M961.641 869.53C956.224 859.388 946.859 845.946 933.566 845.946C926.729 845.946 916.634 858.372 909.547 870.616C914.37 870.151 920.096 867.944 924.471 864.753C926.609 869.337 930.117 874.103 935.247 874.469C940.377 874.836 944.203 870.054 947.124 864.753C948.327 866.043 954.593 868.351 961.641 869.53Z" fill="#4E4E4E"/>
<path d="M963.336 865.884C971.936 868.508 966.368 856.465 962.024 847.322C957.68 838.18 948.281 820.981 933.855 820.981C922.033 820.981 899.633 861.336 904.879 865.132C909.075 868.17 918.927 860.725 925.484 855.944C927.451 860.163 930.421 867.199 935.143 867.536C939.864 867.874 942.618 859.741 946.334 855.944C947.645 857.35 955.495 863.492 963.336 865.884Z" fill="#4E4E4E"/>
<path fill-rule="evenodd" clip-rule="evenodd" d="M957.586 837.926C959.668 842.143 961.191 845.229 960.947 845.206C954.284 844.569 946.558 841.771 945.444 840.58C943.159 844.712 939.649 847.344 935.636 847.058C931.624 846.772 927.963 843.593 926.291 840.02C920.718 844.069 910.379 845.576 911.105 844.465C912.347 842.564 913.507 840.465 914.612 838.257C921.258 828.131 929.351 819.276 935.124 819.276C942.098 819.276 947.99 822.975 952.799 827.956C953.046 828.55 953.295 829.117 953.548 829.648C954.922 832.529 956.352 835.426 957.586 837.926Z" fill="#4E4E4E"/>
<path d="M960.557 838.538C966.787 840.575 962.138 830.066 958.61 822.609C955.082 815.153 948.101 801.174 936.415 800.384C925.487 799.645 905.676 834.33 909.937 837.427C913.345 839.904 922.37 835.02 927.696 831.12C929.293 834.561 931.705 840.3 935.539 840.575C939.374 840.85 941.61 834.217 944.628 831.12C945.693 832.267 955.002 836.721 960.557 838.538Z" fill="#4E4E4E"/>
<path d="M1458.38 776.207H1477.81L1493.65 877.001H1442.29L1458.38 776.207Z" fill="#4E4E4E"/>
<path d="M1458.24 776.207H1477.55L1485.94 830.458H1449.84L1458.24 776.207Z" fill="#4E4E4E"/>
<path d="M1526.35 822.469C1545.72 824.327 1532.88 802.163 1523.52 782.453C1514.15 762.744 1493.89 725.668 1462.79 725.668C1437.31 725.668 1389.02 812.663 1400.33 820.848C1409.37 827.396 1430.61 822.258 1444.75 811.951C1448.99 821.046 1455.39 825.303 1465.57 826.03C1475.75 826.758 1481.68 820.136 1489.69 811.951C1492.52 814.983 1509.44 820.848 1526.35 822.469Z" fill="#4E4E4E"/>
<path fill-rule="evenodd" clip-rule="evenodd" d="M1522.69 780.248C1511.01 758.383 1490.83 729.407 1462.17 729.407C1447.43 729.407 1425.67 756.194 1410.39 782.588C1420.79 781.588 1433.13 776.828 1442.56 769.951C1447.17 779.832 1454.73 790.106 1465.79 790.897C1476.85 791.687 1485.1 781.378 1491.4 769.951C1493.99 772.731 1507.5 777.706 1522.69 780.248Z" fill="#4E4E4E"/>
<path d="M1526.35 772.389C1544.89 778.046 1532.88 752.082 1523.52 732.373C1514.15 712.664 1493.89 675.588 1462.79 675.588C1437.31 675.588 1389.02 762.583 1400.33 770.768C1409.37 777.316 1430.61 761.267 1444.75 750.96C1448.99 760.054 1455.39 775.222 1465.57 775.95C1475.75 776.677 1481.68 759.145 1489.69 750.96C1492.52 753.991 1509.44 767.232 1526.35 772.389Z" fill="#4E4E4E"/>
<rect x="463.013" y="813.854" width="52.113" height="49.5754" rx="24.7877" fill="#4E4E4E"/>
<path d="M502.098 830.379C502.098 823.534 507.647 817.985 514.492 817.985H515.126V817.985C515.126 824.83 509.578 830.379 502.733 830.379H502.098V830.379Z" fill="#4E4E4E"/>
<path d="M481.077 825.93C474.716 825.36 470.07 819.745 470.7 813.389V813.389L471.279 813.441C477.64 814.012 482.286 819.627 481.656 825.982V825.982L481.077 825.93Z" fill="#4E4E4E"/>
<path d="M471.483 846.663C466.389 850.734 458.681 850.136 454.364 845.248V845.248V845.248C459.458 841.177 467.166 841.775 471.483 846.663V846.663V846.663Z" fill="#4E4E4E"/>
<path d="M519.816 850.611C514.722 854.682 507.014 854.084 502.697 849.196V849.196V849.196C507.791 845.125 515.499 845.723 519.816 850.611V850.611V850.611Z" fill="#4E4E4E"/>
<rect width="50.2155" height="51.4965" rx="25.1078" transform="matrix(-0.516347 0.85638 -0.877823 -0.478985 546.396 846.174)" fill="#4E4E4E"/>
<path d="M512.162 870.358C518.248 873.679 520.28 881.185 516.7 887.122V887.122L516.419 886.969C510.333 883.648 508.301 876.142 511.881 870.205V870.205L512.162 870.358Z" fill="#4E4E4E"/>
<path d="M526.061 855.524C529.932 850.309 537.404 848.994 542.752 852.586L542.995 852.749V852.749C539.124 857.963 531.651 859.279 526.304 855.687L526.061 855.524V855.524Z" fill="#4E4E4E"/>
<path d="M512.265 836.839C511.077 830.556 515.497 824.542 522.073 823.417V823.417V823.417C523.261 829.699 518.841 835.714 512.265 836.839V836.839V836.839Z" fill="#4E4E4E"/>
<path d="M484.618 874.759C483.43 868.476 487.849 862.462 494.425 861.337V861.337V861.337C495.613 867.62 491.193 873.634 484.618 874.759V874.759V874.759Z" fill="#4E4E4E"/>
<rect width="50.2155" height="51.4965" rx="25.1078" transform="matrix(-0.516347 0.85638 -0.877823 -0.478985 569.596 834.824)" fill="#4E4E4E"/>
<path d="M535.363 859.008C541.449 862.329 543.481 869.834 539.901 875.772V875.772L539.62 875.618C533.533 872.297 531.502 864.792 535.082 858.854V858.854L535.363 859.008Z" fill="#4E4E4E"/>
<path d="M549.262 844.173C553.132 838.959 560.605 837.643 565.953 841.235L566.196 841.398V841.398C562.325 846.613 554.852 847.928 549.504 844.336L549.262 844.173V844.173Z" fill="#4E4E4E"/>
<path d="M507.818 863.409C506.63 857.126 511.05 851.112 517.626 849.986V849.986V849.986C518.814 856.269 514.394 862.283 507.818 863.409V863.409V863.409Z" fill="#4E4E4E"/>
<path d="M533.049 801.842C544.442 808.059 548.246 822.109 541.544 833.225V833.225C534.842 844.34 520.173 848.311 508.779 842.094L507.726 841.52C496.333 835.303 492.529 821.252 499.231 810.137V810.137C505.933 799.021 520.603 795.05 531.996 801.267L533.049 801.842Z" fill="#4E4E4E"/>
<path d="M523.005 835.441C528.701 838.549 530.603 845.575 527.252 851.132V851.132L526.989 850.989C521.292 847.88 519.391 840.855 522.742 835.297V835.297L523.005 835.441Z" fill="#4E4E4E"/>
<path d="M536.014 821.556C539.637 816.674 546.632 815.443 551.638 818.805L551.865 818.958V818.958C548.242 823.839 541.247 825.07 536.241 821.708L536.014 821.556V821.556Z" fill="#4E4E4E"/>
<path d="M523.101 804.066C521.989 798.185 526.126 792.556 532.281 791.502V791.502V791.502C533.393 797.383 529.256 803.013 523.101 804.066V804.066V804.066Z" fill="#4E4E4E"/>
<path d="M497.222 839.56C496.11 833.679 500.247 828.05 506.402 826.996V826.996V826.996C507.514 832.877 503.377 838.507 497.222 839.56V839.56V839.56Z" fill="#4E4E4E"/>
<rect width="48.7288" height="46.4565" rx="23.2283" transform="matrix(0.990127 0.140172 -0.154554 0.987984 478.983 798.176)" fill="#4E4E4E"/>
<path d="M512.776 818.598C513.767 812.261 519.719 807.852 526.07 808.751L526.632 808.831V808.831C525.641 815.168 519.689 819.577 513.338 818.677L512.776 818.598V818.598Z" fill="#4E4E4E"/>
<path d="M493.981 811.729C488.162 810.364 484.663 804.555 486.167 798.753V798.753L486.673 798.872C492.492 800.237 495.99 806.046 494.487 811.848V811.848L493.981 811.729Z" fill="#4E4E4E"/>
<path d="M482.072 829.661C476.765 832.764 469.717 831.198 466.428 826.108V826.108V826.108C471.736 823.005 478.784 824.57 482.072 829.661V829.661V829.661Z" fill="#4E4E4E"/>
<path d="M526.249 839.651C520.941 842.754 513.893 841.189 510.605 836.098V836.098V836.098C515.912 832.995 522.96 834.56 526.249 839.651V839.651V839.651Z" fill="#4E4E4E"/>
<rect width="47.0029" height="48.2019" rx="23.5015" transform="matrix(-0.516347 0.85638 -0.877823 -0.478985 547.382 827.663)" fill="#4E4E4E"/>
<path d="M515.338 850.299C521.035 853.408 522.937 860.433 519.586 865.991V865.991L519.323 865.847C513.626 862.739 511.724 855.713 515.075 850.156V850.156L515.338 850.299Z" fill="#4E4E4E"/>
<path d="M528.348 836.414C531.971 831.533 538.966 830.301 543.971 833.664L544.198 833.816V833.816C540.575 838.697 533.581 839.929 528.575 836.567L528.348 836.414V836.414Z" fill="#4E4E4E"/>
<path d="M515.435 818.925C514.323 813.044 518.46 807.414 524.615 806.361V806.361V806.361C525.727 812.242 521.59 817.871 515.435 818.925V818.925V818.925Z" fill="#4E4E4E"/>
<path d="M489.556 854.419C488.444 848.538 492.581 842.908 498.736 841.855V841.855V841.855C499.848 847.736 495.711 853.365 489.556 854.419V854.419V854.419Z" fill="#4E4E4E"/>
<path fill-rule="evenodd" clip-rule="evenodd" d="M549.812 836.116C549.353 839.69 547.841 843.191 545.234 846.173L544.55 846.956C538.307 854.099 527.845 855.914 519.599 851.81C519.217 852.349 518.802 852.874 518.356 853.385L517.672 854.167C510.497 862.377 497.749 863.549 489.198 856.785C483.623 852.376 481.208 845.683 482.19 839.283C478.945 841.403 475.068 842.635 470.902 842.635H470.284C467.838 842.635 465.491 842.21 463.313 841.43C463.357 841.82 463.41 842.208 463.472 842.592C460.333 842.309 457.085 843.174 454.507 845.234C457.303 848.4 461.522 849.767 465.532 849.23C469.265 857.108 477.03 862.704 486.163 863.352C486.435 864.132 486.749 864.897 487.102 865.646C485.082 868.14 484.129 871.405 484.761 874.745C487.254 874.319 489.438 873.189 491.123 871.608C492.887 873.522 495.003 875.191 497.445 876.524L498.57 877.138C502.45 879.255 506.686 880.266 510.889 880.277C511.821 883.015 513.763 885.428 516.562 886.955L516.843 887.108C518.353 884.604 518.865 881.821 518.495 879.191C524.167 877.527 529.297 873.995 532.785 868.891C533.22 868.913 533.655 868.925 534.09 868.926C535.022 871.664 536.963 874.077 539.763 875.605L540.044 875.758C541.554 873.254 542.065 870.471 541.696 867.84C547.813 866.046 553.298 862.079 556.775 856.312C558.801 852.952 559.928 849.341 560.228 845.74C562.603 844.975 564.768 843.501 566.339 841.384L566.096 841.221C564.201 839.948 562.039 839.292 559.865 839.206C559.406 836.871 558.596 834.611 557.457 832.504C555.216 834.192 552.625 835.438 549.812 836.116Z" fill="#4E4E4E"/>
<path d="M506.087 861.992H514.263L520.928 922.545H499.317L506.087 861.992Z" fill="#4E4E4E"/>
<path d="M506.028 861.992H514.322L517.834 894.584H502.496L506.028 861.992Z" fill="#4E4E4E"/>
<path fill-rule="evenodd" clip-rule="evenodd" d="M513.449 878.905C526.237 870.146 527.791 856.985 526.896 851.24L521.119 852.054C521.782 856.311 520.61 867.153 510.036 874.396L513.449 878.905Z" fill="#4E4E4E"/>
<rect width="44.4432" height="43.8803" rx="21.9401" transform="matrix(0.806717 -0.590938 0.629155 0.777279 480.27 841.433)" fill="#4E4E4E"/>
<path d="M516.362 833.105C512.551 828.396 513.423 821.676 518.31 818.096L518.424 818.012V818.012C522.236 822.722 521.363 829.442 516.476 833.022L516.362 833.105V833.105Z" fill="#4E4E4E"/>
<path d="M499.739 840.449C494.87 843.366 488.406 841.93 485.3 837.24V837.24L485.411 837.173C490.279 834.255 496.744 835.692 499.85 840.382V840.382L499.739 840.449Z" fill="#4E4E4E"/>
<path d="M504.367 859.737C503.122 865.14 497.494 868.578 491.802 867.391V867.391V867.391C493.047 861.989 498.676 858.55 504.367 859.737V859.737V859.737Z" fill="#4E4E4E"/>
<path d="M539.818 838.095C538.573 843.498 532.945 846.936 527.253 845.749V845.749V845.749C528.498 840.346 534.127 836.908 539.818 838.095V838.095V838.095Z" fill="#4E4E4E"/>
<rect width="35.5774" height="33.9183" rx="16.9592" transform="matrix(0.990127 0.140172 -0.154554 0.987984 481.891 798.903)" fill="#4E4E4E"/>
<path d="M506.563 813.813C507.287 809.186 511.632 805.968 516.269 806.624L516.68 806.682V806.682C515.956 811.309 511.61 814.528 506.973 813.871L506.563 813.813V813.813Z" fill="#4E4E4E"/>
<path d="M492.84 808.798C488.592 807.802 486.038 803.56 487.136 799.324V799.324L487.505 799.411C491.754 800.408 494.308 804.649 493.21 808.885V808.885L492.84 808.798Z" fill="#4E4E4E"/>
<path d="M484.146 821.891C480.271 824.156 475.125 823.013 472.724 819.296V819.296V819.296C476.599 817.031 481.745 818.174 484.146 821.891V821.891V821.891Z" fill="#4E4E4E"/>
<path d="M516.4 829.185C512.525 831.45 507.379 830.307 504.978 826.59V826.59V826.59C508.853 824.325 513.999 825.468 516.4 829.185V829.185V829.185Z" fill="#4E4E4E"/>
<path d="M185.569 851.169H200.727L213.08 929.782H173.021L185.569 851.169Z" fill="#4E4E4E"/>
<path d="M185.461 851.169H200.519L207.066 893.481H178.914L185.461 851.169Z" fill="#4E4E4E"/>
<rect x="132.921" y="801.737" width="66.0811" height="62.8633" rx="31.4316" fill="#4E4E4E"/>
<path d="M182.482 822.692C182.482 814.012 189.518 806.976 198.198 806.976H199.002V806.976C199.002 815.656 191.966 822.692 183.287 822.692H182.482V822.692Z" fill="#4E4E4E"/>
<path d="M155.827 817.051C147.761 816.327 141.87 809.208 142.668 801.148V801.148L143.403 801.214C151.469 801.938 157.36 809.058 156.561 817.117V817.117L155.827 817.051Z" fill="#4E4E4E"/>
<path d="M143.661 843.34C137.202 848.503 127.427 847.744 121.954 841.547V841.547V841.547C128.413 836.384 138.187 837.143 143.661 843.34V843.34V843.34Z" fill="#4E4E4E"/>
<path d="M204.949 848.346C198.49 853.509 188.715 852.75 183.242 846.553V846.553V846.553C189.701 841.39 199.475 842.149 204.949 848.346V848.346V848.346Z" fill="#4E4E4E"/>
<rect width="63.675" height="65.2993" rx="31.8375" transform="matrix(-0.516347 0.85638 -0.877823 -0.478985 238.653 842.72)" fill="#4E4E4E"/>
<path d="M195.243 873.386C202.961 877.597 205.537 887.115 200.998 894.644V894.644L200.641 894.449C192.924 890.238 190.347 880.721 194.887 873.192V873.192L195.243 873.386Z" fill="#4E4E4E"/>
<path d="M212.868 854.576C217.775 847.963 227.251 846.295 234.033 850.85L234.34 851.056V851.056C229.432 857.669 219.956 859.337 213.175 854.782L212.868 854.576V854.576Z" fill="#4E4E4E"/>
<path d="M195.374 830.883C193.868 822.916 199.472 815.289 207.81 813.862V813.862V813.862C209.317 821.829 203.713 829.456 195.374 830.883V830.883V830.883Z" fill="#4E4E4E"/>
<path d="M160.316 878.967C158.809 871 164.414 863.374 172.752 861.947V861.947V861.947C174.258 869.913 168.654 877.54 160.316 878.967V878.967V878.967Z" fill="#4E4E4E"/>
<rect width="63.675" height="65.2993" rx="31.8375" transform="matrix(-0.516347 0.85638 -0.877823 -0.478985 268.072 828.328)" fill="#4E4E4E"/>
<path d="M224.663 858.994C232.38 863.205 234.957 872.722 230.417 880.251V880.251L230.061 880.057C222.343 875.846 219.767 866.329 224.306 858.799V858.799L224.663 858.994Z" fill="#4E4E4E"/>
<path d="M242.287 840.184C247.195 833.571 256.671 831.903 263.452 836.458L263.76 836.664V836.664C258.852 843.277 249.376 844.945 242.595 840.39L242.287 840.184V840.184Z" fill="#4E4E4E"/>
<path d="M189.735 864.575C188.229 856.608 193.833 848.981 202.171 847.554V847.554V847.554C203.678 855.521 198.074 863.148 189.735 864.575V864.575V864.575Z" fill="#4E4E4E"/>
<path d="M212.353 782.212C226.8 790.095 231.623 807.912 223.125 822.007V822.007C214.627 836.101 196.026 841.136 181.578 833.253L180.243 832.525C165.796 824.642 160.973 806.825 169.471 792.73V792.73C177.969 778.635 196.571 773.6 211.018 781.484L212.353 782.212Z" fill="#4E4E4E"/>
<path d="M199.616 824.817C206.84 828.758 209.252 837.667 205.003 844.714V844.714L204.669 844.532C197.445 840.59 195.034 831.682 199.283 824.635V824.635L199.616 824.817Z" fill="#4E4E4E"/>
<path d="M216.113 807.21C220.707 801.02 229.577 799.459 235.924 803.722L236.212 803.915V803.915C231.618 810.105 222.749 811.666 216.401 807.403L216.113 807.21V807.21Z" fill="#4E4E4E"/>
<path d="M199.739 785.032C198.329 777.575 203.575 770.437 211.38 769.101V769.101V769.101C212.79 776.558 207.544 783.697 199.739 785.032V785.032V785.032Z" fill="#4E4E4E"/>
<path d="M166.924 830.04C165.513 822.583 170.759 815.444 178.564 814.109V814.109V814.109C179.974 821.566 174.729 828.705 166.924 830.04V830.04V830.04Z" fill="#4E4E4E"/>
<rect width="59.6013" height="61.1217" rx="29.8007" transform="matrix(-0.516347 0.85638 -0.877823 -0.478985 239.903 819.247)" fill="#4E4E4E"/>
<path d="M199.271 847.951C206.495 851.893 208.906 860.801 204.657 867.849V867.849L204.323 867.667C197.1 863.725 194.688 854.817 198.937 847.769V847.769L199.271 847.951Z" fill="#4E4E4E"/>
<path d="M215.768 830.344C220.362 824.155 229.231 822.593 235.579 826.857L235.867 827.05V827.05C231.273 833.24 222.403 834.801 216.056 830.538L215.768 830.344V830.344Z" fill="#4E4E4E"/>
<path d="M199.393 808.167C197.983 800.71 203.229 793.571 211.034 792.236V792.236V792.236C212.444 799.693 207.198 806.831 199.393 808.167V808.167V808.167Z" fill="#4E4E4E"/>
<path d="M166.578 853.175C165.168 845.718 170.413 838.579 178.218 837.244V837.244V837.244C179.628 844.701 174.383 851.839 166.578 853.175V853.175V853.175Z" fill="#4E4E4E"/>
<path fill-rule="evenodd" clip-rule="evenodd" d="M242.984 829.967C242.402 834.498 240.485 838.937 237.179 842.719L236.312 843.711C228.396 852.769 215.129 855.071 204.673 849.866C204.189 850.549 203.663 851.216 203.098 851.864L202.23 852.856C193.132 863.266 176.967 864.752 166.124 856.176C159.055 850.585 155.993 842.097 157.238 833.982C153.123 836.671 148.206 838.233 142.924 838.233H142.141C139.039 838.233 136.063 837.694 133.301 836.705C133.357 837.2 133.424 837.691 133.502 838.178C129.522 837.82 125.404 838.916 122.135 841.529C125.68 845.543 131.03 847.276 136.115 846.595C140.849 856.585 150.695 863.681 162.275 864.503C162.621 865.491 163.018 866.462 163.467 867.412C160.905 870.574 159.696 874.714 160.497 878.95C163.659 878.409 166.428 876.976 168.565 874.972C170.802 877.398 173.485 879.516 176.582 881.205L178.008 881.983C182.928 884.668 188.3 885.951 193.629 885.964C194.811 889.436 197.273 892.495 200.822 894.432L201.179 894.627C203.093 891.451 203.742 887.922 203.273 884.587C210.466 882.477 216.97 877.998 221.394 871.526C221.945 871.555 222.497 871.57 223.048 871.571C224.23 875.043 226.692 878.102 230.242 880.039L230.598 880.234C232.513 877.058 233.162 873.529 232.693 870.194C240.45 867.919 247.405 862.889 251.814 855.575C254.383 851.315 255.813 846.736 256.192 842.17C259.204 841.2 261.949 839.331 263.941 836.647L263.634 836.44C261.231 834.826 258.489 833.993 255.733 833.885C255.151 830.924 254.124 828.058 252.678 825.387C249.837 827.526 246.551 829.107 242.984 829.967Z" fill="#4E4E4E"/>
<rect width="56.3555" height="55.6417" rx="27.8209" transform="matrix(0.806717 -0.590938 0.629155 0.777279 149.638 828.846)" fill="#4E4E4E"/>
<path d="M195.404 818.286C190.57 812.314 191.676 803.793 197.874 799.253L198.018 799.148V799.148C202.851 805.119 201.746 813.641 195.548 818.18L195.404 818.286V818.286Z" fill="#4E4E4E"/>
<path d="M174.325 827.598C168.151 831.298 159.954 829.476 156.015 823.529V823.529L156.156 823.445C162.33 819.745 170.527 821.566 174.466 827.513V827.513L174.325 827.598Z" fill="#4E4E4E"/>
<path d="M180.194 852.056C178.615 858.907 171.478 863.267 164.261 861.762V861.762V861.762C165.84 854.911 172.977 850.551 180.194 852.056V852.056V852.056Z" fill="#4E4E4E"/>
<path d="M225.147 824.613C223.568 831.464 216.431 835.825 209.214 834.319V834.319V834.319C210.793 827.468 217.93 823.108 225.147 824.613V824.613V824.613Z" fill="#4E4E4E"/>
<rect width="37.4779" height="36.4681" rx="18.2341" transform="matrix(0.889223 -0.457474 0.494206 0.869345 160.004 796.033)" fill="#4E4E4E"/>
<path d="M189.037 791.384C188.044 786.196 191.562 781.242 196.896 780.318L197.111 780.28V780.28C198.104 785.467 194.586 790.422 189.252 791.346L189.037 791.384V791.384Z" fill="#4E4E4E"/>
<path d="M177.347 814.228C175.563 818.524 170.423 820.661 165.886 818.955V818.955V818.955C167.67 814.659 172.81 812.522 177.347 814.228V814.228V814.228Z" fill="#4E4E4E"/>
<rect x="361.705" y="812.33" width="9.22204" height="50.8161" fill="#4E4E4E"/>
<rect x="361.729" y="793.542" width="9.22204" height="50.8161" fill="#4E4E4E"/>
<path d="M366.217 784.612L392.458 837.738H339.976L366.217 784.612Z" fill="#4E4E4E"/>
<path d="M366.241 764.594L388.489 809.635H343.993L366.241 764.594Z" fill="#4E4E4E"/>
<path d="M374.793 781.747H357.694L355.171 786.662H377.316L374.793 781.747Z" fill="#4E4E4E"/>
<path d="M378.589 809.597H353.878L351.527 814.184H380.96L378.589 809.597Z" fill="#4E4E4E"/>
<path d="M366.534 746.115L384.218 781.918H348.85L366.534 746.115Z" fill="#4E4E4E"/>
<rect x="261.763" y="766.065" width="16.4479" height="90.6329" fill="#4E4E4E"/>
<rect x="261.807" y="732.555" width="16.4479" height="90.6329" fill="#4E4E4E"/>
<path d="M269.811 716.629L316.614 811.381H223.008L269.811 716.629Z" fill="#4E4E4E"/>
<path d="M269.854 680.925L309.535 761.258H230.174L269.854 680.925Z" fill="#4E4E4E"/>
<path d="M285.107 711.518H254.61L250.11 720.283H289.607L285.107 711.518Z" fill="#4E4E4E"/>
<path d="M291.877 761.189H247.804L243.611 769.37H296.106L291.877 761.189Z" fill="#4E4E4E"/>
<path d="M270.377 647.967L301.918 711.822H238.835L270.377 647.967Z" fill="#4E4E4E"/>
<path d="M909.023 891.951C579.023 919.349 159.856 867.534 -8.47705 838.202V1004.68H1599.02V755.439C1506.52 789.527 1239.02 864.554 909.023 891.951Z" fill="#111111"/>
<path d="M1439.06 888.134H1453.06L1464.46 991.803H1427.47L1439.06 888.134Z" fill="#111111"/>
<path d="M1438.96 888.134H1452.86L1458.91 943.932H1432.91L1438.96 888.134Z" fill="#111111"/>
<path d="M1488.02 934.462C1501.97 935.8 1492.73 919.834 1485.98 905.637C1479.23 891.439 1464.64 864.732 1442.24 864.732C1423.88 864.732 1389.09 927.398 1397.24 933.294C1403.76 938.011 1419.05 934.31 1429.24 926.885C1432.29 933.437 1436.9 936.503 1444.24 937.027C1451.57 937.551 1455.84 932.781 1461.61 926.885C1463.65 929.069 1475.84 933.294 1488.02 934.462Z" fill="#111111"/>
<path fill-rule="evenodd" clip-rule="evenodd" d="M1485.39 904.048C1476.97 888.298 1462.43 867.425 1441.79 867.425C1431.17 867.425 1415.49 886.721 1404.49 905.734C1411.98 905.013 1420.87 901.585 1427.66 896.631C1430.98 903.748 1436.43 911.149 1444.4 911.719C1452.36 912.288 1458.31 904.862 1462.84 896.631C1464.71 898.633 1474.44 902.217 1485.39 904.048Z" fill="#111111"/>
<path d="M1488.02 898.387C1501.37 902.462 1492.73 883.759 1485.98 869.561C1479.23 855.364 1464.64 828.657 1442.24 828.657C1423.88 828.657 1389.09 891.323 1397.24 897.219C1403.76 901.936 1419.05 890.375 1429.24 882.95C1432.29 889.502 1436.9 900.428 1444.24 900.952C1451.57 901.476 1455.84 888.846 1461.61 882.95C1463.65 885.134 1475.84 894.672 1488.02 898.387Z" fill="#111111"/>
<path fill-rule="evenodd" clip-rule="evenodd" d="M1479.09 854.97C1482.32 861.518 1484.69 866.311 1484.31 866.275C1473.96 865.286 1461.96 860.94 1460.23 859.091C1456.68 865.508 1451.23 869.595 1445 869.151C1438.77 868.707 1433.09 863.77 1430.49 858.221C1421.84 864.51 1405.78 866.85 1406.91 865.124C1408.84 862.173 1410.64 858.911 1412.35 855.483C1422.67 839.759 1435.24 826.008 1444.21 826.008C1455.04 826.008 1464.19 831.753 1471.65 839.489C1472.04 840.411 1472.43 841.29 1472.82 842.114C1474.95 846.59 1477.17 851.088 1479.09 854.97Z" fill="#111111"/>
<path d="M1483.7 855.92C1493.38 859.084 1486.16 842.764 1480.68 831.185C1475.2 819.605 1464.36 797.898 1446.21 796.67C1429.24 795.523 1398.48 849.386 1405.09 854.195C1410.39 858.042 1424.4 850.457 1432.67 844.402C1435.15 849.745 1438.9 858.656 1444.85 859.084C1450.81 859.511 1454.28 849.211 1458.97 844.402C1460.62 846.183 1475.08 853.099 1483.7 855.92Z" fill="#111111"/>
<path d="M1590.35 817.411H1614.2L1633.64 941.126H1570.6L1590.35 817.411Z" fill="#111111"/>
<path d="M1590.18 817.411H1613.87L1624.18 883.998H1579.87L1590.18 817.411Z" fill="#111111"/>
<path d="M1673.77 874.193C1697.55 876.473 1681.8 849.269 1670.3 825.078C1658.81 800.887 1633.94 755.38 1595.77 755.38C1564.49 755.38 1505.21 862.158 1519.09 872.204C1530.2 880.241 1556.27 873.935 1573.62 861.284C1578.82 872.446 1586.68 877.671 1599.17 878.564C1611.67 879.457 1618.95 871.33 1628.78 861.284C1632.25 865.005 1653.03 872.204 1673.77 874.193Z" fill="#111111"/>
<path fill-rule="evenodd" clip-rule="evenodd" d="M1669.29 822.372C1654.95 795.534 1630.18 759.969 1595 759.969C1576.91 759.969 1550.2 792.847 1531.45 825.244C1544.21 824.015 1559.36 818.174 1570.94 809.732C1576.59 821.86 1585.88 834.471 1599.45 835.441C1613.02 836.411 1623.15 823.758 1630.87 809.732C1634.06 813.145 1650.64 819.252 1669.29 822.372Z" fill="#111111"/>
<path d="M1673.77 812.725C1696.53 819.668 1681.8 787.8 1670.3 763.609C1658.81 739.418 1633.94 693.911 1595.77 693.911C1564.49 693.911 1505.21 800.689 1519.09 810.735C1530.2 818.772 1556.27 799.074 1573.62 786.423C1578.82 797.585 1586.68 816.202 1599.17 817.095C1611.67 817.988 1618.95 796.469 1628.78 786.423C1632.25 790.144 1653.03 806.395 1673.77 812.725Z" fill="#111111"/>
<path d="M28.1049 909.419H46.7091L61.8715 1005.91H12.7033L28.1049 909.419Z" fill="#111111"/>
<path d="M27.9716 909.419H46.4543L54.4902 961.353H19.9357L27.9716 909.419Z" fill="#111111"/>
<rect x="-36.515" y="848.747" width="81.1078" height="77.1582" rx="38.5791" fill="#111111"/>
<path d="M24.3158 874.467C24.3158 863.814 32.952 855.177 43.6053 855.177H44.5927V855.177C44.5927 865.831 35.9565 874.467 25.3032 874.467H24.3158V874.467Z" fill="#111111"/>
<path d="M51.8913 905.955C43.9633 912.291 31.9661 911.36 25.2479 903.753V903.753V903.753C33.1759 897.417 45.173 898.348 51.8913 905.955V905.955V905.955Z" fill="#111111"/>
<rect width="78.1546" height="80.1482" rx="39.0773" transform="matrix(-0.516347 0.85638 -0.877823 -0.478985 93.2592 899.049)" fill="#111111"/>
<path d="M39.9787 936.689C49.4512 941.858 52.6133 953.539 47.0415 962.78V962.78L46.604 962.541C37.1315 957.373 33.9694 945.691 39.5412 936.45V936.45L39.9787 936.689Z" fill="#111111"/>
<path d="M61.6108 913.601C67.6347 905.485 79.2654 903.437 87.5886 909.028L87.9662 909.281V909.281C81.9423 917.398 70.3116 919.445 61.9883 913.855L61.6108 913.601V913.601Z" fill="#111111"/>
<path d="M40.1396 884.52C38.2906 874.742 45.169 865.381 55.4036 863.63V863.63V863.63C57.2526 873.408 50.3742 882.769 40.1396 884.52V884.52V884.52Z" fill="#111111"/>
<path d="M-2.891 943.539C-4.74006 933.76 2.13838 924.399 12.3729 922.648V922.648V922.648C14.222 932.426 7.34355 941.787 -2.891 943.539V943.539V943.539Z" fill="#111111"/>
<rect width="78.1546" height="80.1482" rx="39.0773" transform="matrix(-0.516347 0.85638 -0.877823 -0.478985 129.369 881.384)" fill="#111111"/>
<path d="M76.0882 919.024C85.5607 924.193 88.7228 935.874 83.1509 945.115V945.115L82.7134 944.876C73.2409 939.708 70.0788 928.026 75.6506 918.785V918.785L76.0882 919.024Z" fill="#111111"/>
<path d="M97.7202 895.936C103.744 887.82 115.375 885.772 123.698 891.363L124.076 891.616V891.616C118.052 899.733 106.421 901.78 98.0978 896.19L97.7202 895.936V895.936Z" fill="#111111"/>
<path d="M33.2184 925.874C31.3694 916.095 38.2478 906.734 48.4824 904.983V904.983V904.983C50.3314 914.762 43.453 924.122 33.2184 925.874V925.874V925.874Z" fill="#111111"/>
<path d="M60.979 824.782C78.712 834.458 84.6316 856.326 74.2008 873.626V873.626C63.7701 890.925 40.9389 897.106 23.2059 887.43L21.5678 886.536C3.8348 876.86 -2.0848 854.992 8.34596 837.692V837.692C18.7767 820.392 41.6079 814.212 59.3409 823.888L60.979 824.782Z" fill="#111111"/>
<path d="M45.3464 877.075C54.2129 881.913 57.1727 892.847 51.9574 901.497V901.497L51.5478 901.273C42.6813 896.435 39.7215 885.501 44.9369 876.851V876.851L45.3464 877.075Z" fill="#111111"/>
<path d="M65.5946 855.464C71.2331 847.867 82.1197 845.95 89.9105 851.183L90.2639 851.421V851.421C84.6253 859.018 73.7388 860.934 65.948 855.701L65.5946 855.464V855.464Z" fill="#111111"/>
<path d="M45.4969 828.244C43.7662 819.091 50.2045 810.329 59.7843 808.689V808.689V808.689C61.5151 817.842 55.0767 826.604 45.4969 828.244V828.244V828.244Z" fill="#111111"/>
<path d="M5.21921 883.486C3.48845 874.333 9.92683 865.571 19.5066 863.932V863.932V863.932C21.2374 873.085 14.799 881.847 5.21921 883.486V883.486V883.486Z" fill="#111111"/>
<rect width="73.1546" height="75.0207" rx="36.5773" transform="matrix(-0.516347 0.85638 -0.877823 -0.478985 94.794 870.239)" fill="#111111"/>
<path d="M44.9222 905.47C53.7887 910.308 56.7485 921.242 51.5332 929.892V929.892L51.1236 929.669C42.2571 924.831 39.2973 913.897 44.5127 905.247V905.247L44.9222 905.47Z" fill="#111111"/>
<path d="M65.1703 883.859C70.8088 876.262 81.6954 874.346 89.4862 879.579L89.8396 879.816V879.816C84.201 887.413 73.3144 889.33 65.5237 884.097L65.1703 883.859V883.859Z" fill="#111111"/>
<path d="M45.0725 856.639C43.3418 847.486 49.7802 838.724 59.36 837.085V837.085V837.085C61.0907 846.238 54.6523 855 45.0725 856.639V856.639V856.639Z" fill="#111111"/>
<path d="M4.79495 911.882C3.06419 902.729 9.50257 893.967 19.0824 892.327V892.327V892.327C20.8131 901.48 14.3747 910.242 4.79495 911.882V911.882V911.882Z" fill="#111111"/>
<path fill-rule="evenodd" clip-rule="evenodd" d="M98.5762 883.396C97.8616 888.958 95.5079 894.406 91.4511 899.048L90.3866 900.266C80.6705 911.383 64.3869 914.208 51.5532 907.821C50.9582 908.659 50.3136 909.477 49.6191 910.272L48.5546 911.49C37.3879 924.267 17.5464 926.091 4.23725 915.565C-4.43904 908.702 -8.19733 898.285 -6.66883 888.325C-11.7194 891.624 -17.7546 893.542 -24.2378 893.542H-25.1988C-29.0062 893.542 -32.6591 892.881 -36.0488 891.666C-35.9805 892.273 -35.8981 892.876 -35.8019 893.474C-40.6872 893.035 -45.742 894.38 -49.7545 897.587C-45.4029 902.515 -38.8365 904.641 -32.5957 903.806C-26.7851 916.067 -14.6997 924.776 -0.486248 925.786C-0.0621185 926.999 0.425842 928.19 0.976265 929.356C-2.16752 933.238 -3.65151 938.319 -2.66841 943.518C1.21246 942.854 4.61075 941.095 7.23362 938.635C9.97952 941.613 13.2727 944.212 17.0739 946.286L18.824 947.241C24.8633 950.536 31.4561 952.11 37.9968 952.127C39.4479 956.388 42.4698 960.143 46.8265 962.521L47.2641 962.759C49.614 958.862 50.4104 954.53 49.835 950.436C58.6635 947.847 66.6463 942.349 72.0759 934.406C72.7528 934.441 73.4299 934.459 74.1065 934.461C75.5576 938.723 78.5794 942.477 82.9362 944.855L83.3737 945.093C85.7236 941.196 86.52 936.864 85.9447 932.771C95.4649 929.978 104.002 923.804 109.414 914.828C112.567 909.599 114.322 903.979 114.788 898.374C118.484 897.184 121.853 894.889 124.298 891.595L123.921 891.341C120.971 889.36 117.607 888.338 114.223 888.205C113.509 884.57 112.248 881.053 110.474 877.774C106.987 880.4 102.954 882.341 98.5762 883.396Z" fill="#111111"/>
<rect width="69.1707" height="68.2945" rx="34.1473" transform="matrix(0.806717 -0.590938 0.629155 0.777279 -15.9975 882.021)" fill="#111111"/>
<path d="M40.176 869.059C34.2434 861.73 35.6007 851.271 43.2077 845.698L43.3844 845.569V845.569C49.317 852.898 47.9597 863.357 40.3527 868.929L40.176 869.059V869.059Z" fill="#111111"/>
<path d="M14.3037 880.488C6.72609 885.03 -3.33541 882.794 -8.16933 875.494V875.494L-7.99643 875.391C-0.41885 870.849 9.64265 873.085 14.4766 880.385V880.385L14.3037 880.488Z" fill="#111111"/>
<path d="M21.5073 910.509C19.5691 918.917 10.8092 924.269 1.95083 922.421V922.421V922.421C3.88896 914.013 12.6489 908.661 21.5073 910.509V910.509V910.509Z" fill="#111111"/>
<path d="M76.6827 876.825C74.7445 885.234 65.9846 890.586 57.1262 888.738V888.738V888.738C59.0644 880.329 67.8243 874.978 76.6827 876.825V876.825V876.825Z" fill="#111111"/>
<rect width="46.0003" height="44.7609" rx="22.3805" transform="matrix(0.889223 -0.457474 0.494206 0.869345 -3.27405 841.745)" fill="#111111"/>
<path d="M32.3612 836.039C31.1419 829.672 35.4604 823.591 42.0068 822.457L42.2711 822.411V822.411C43.4905 828.778 39.172 834.858 32.6255 835.993L32.3612 836.039V836.039Z" fill="#111111"/>
<path d="M18.0133 864.078C15.8231 869.351 9.51427 871.973 3.94516 869.88V869.88V869.88C6.13531 864.607 12.4442 861.984 18.0133 864.078V864.078V864.078Z" fill="#111111"/>
<path d="M1456.15 959.029H1476.57L1493.21 1110.25H1439.25L1456.15 959.029Z" fill="#111111"/>
<path d="M1456 959.029H1476.29L1485.11 1040.42H1447.18L1456 959.029Z" fill="#111111"/>
<path fill-rule="evenodd" clip-rule="evenodd" d="M1375.94 886.846C1375.94 864.755 1393.84 846.848 1415.93 846.848H1421.75C1443.84 846.848 1461.75 864.755 1461.75 886.846V891.398C1461.75 892.464 1461.7 893.52 1461.62 894.564C1479.26 898.73 1492.39 914.578 1492.39 933.493V938.045C1492.39 960.135 1474.49 978.043 1452.4 978.043H1446.58C1435.02 978.043 1424.61 973.141 1417.31 965.303C1410.01 973.141 1399.59 978.043 1388.04 978.043H1382.22C1360.13 978.043 1342.22 960.135 1342.22 938.045V933.493C1342.22 913.513 1356.87 896.955 1376.02 893.973C1375.96 893.122 1375.94 892.263 1375.94 891.398V886.846Z" fill="#111111"/>
<path fill-rule="evenodd" clip-rule="evenodd" d="M1472.39 1012.19C1457.86 1028.82 1431.72 1030.96 1414.4 1017.25C1397.07 1003.55 1394.51 978.718 1409.05 962.085L1410.95 959.905C1411.94 958.774 1412.98 957.709 1414.07 956.713C1404.17 942.691 1404.55 923.447 1416.52 909.757L1418.42 907.577C1432.96 890.944 1459.09 888.807 1476.42 902.511C1485.82 909.946 1490.87 920.657 1491.21 931.557C1502.53 929.88 1514.53 932.653 1523.93 940.088C1541.25 953.791 1543.82 978.623 1529.28 995.256L1527.37 997.436C1514.75 1011.88 1493.37 1015.39 1476.62 1007.09C1475.9 1008.08 1475.13 1009.06 1474.3 1010.01L1472.39 1012.19Z" fill="#111111"/>
<path fill-rule="evenodd" clip-rule="evenodd" d="M1462.12 873.24C1462.12 851.15 1480.03 833.242 1502.12 833.242H1508.89C1530.98 833.242 1548.89 851.15 1548.89 873.24V878.732C1548.89 879.631 1548.86 880.523 1548.8 881.407C1566.59 885.461 1579.87 901.382 1579.87 920.406V925.897C1579.87 947.987 1561.96 965.895 1539.87 965.895H1533.11C1521.61 965.895 1511.25 961.047 1503.95 953.283C1496.66 961.047 1486.3 965.895 1474.8 965.895H1468.03C1445.94 965.895 1428.03 947.987 1428.03 925.897V920.406C1428.03 900.305 1442.86 883.668 1462.18 880.834C1462.14 880.138 1462.12 879.437 1462.12 878.732V873.24Z" fill="#111111"/>
<path fill-rule="evenodd" clip-rule="evenodd" d="M1446.32 815.233C1446.32 793.143 1464.23 775.236 1486.32 775.236H1493.09C1515.18 775.236 1533.09 793.143 1533.09 815.233V820.725C1533.09 821.624 1533.06 822.516 1533 823.4C1550.79 827.454 1564.07 843.376 1564.07 862.399V867.891C1564.07 889.981 1546.17 907.888 1524.07 907.888H1517.31C1505.81 907.888 1495.45 903.04 1488.15 895.276C1480.86 903.04 1470.5 907.888 1459 907.888H1452.23C1430.14 907.888 1412.23 889.981 1412.23 867.891V862.399C1412.23 842.299 1427.06 825.661 1446.38 822.827C1446.34 822.131 1446.32 821.43 1446.32 820.725V815.233Z" fill="#111111"/>
<path fill-rule="evenodd" clip-rule="evenodd" d="M1384.3 834.677C1384.3 815.308 1400.01 799.606 1419.38 799.606H1420.42C1439.79 799.606 1455.5 815.308 1455.5 834.677C1455.5 836.332 1455.38 837.961 1455.16 839.554C1470.01 843.633 1480.92 857.231 1480.92 873.377C1480.92 892.747 1465.22 908.449 1445.85 908.449H1444.8C1434.4 908.449 1425.05 903.918 1418.63 896.723C1412.21 903.918 1402.86 908.449 1392.46 908.449H1391.41C1372.04 908.449 1356.34 892.747 1356.34 873.377C1356.34 856.349 1368.47 842.156 1384.56 838.973C1384.39 837.565 1384.3 836.132 1384.3 834.677Z" fill="#111111"/>
<path fill-rule="evenodd" clip-rule="evenodd" d="M1498.6 800.762C1512.14 814.393 1511.53 835.856 1497.25 848.701C1482.96 861.545 1460.4 860.907 1446.86 847.276L1445.25 845.657C1444.31 844.709 1443.43 843.723 1442.63 842.705C1428.89 849.405 1411.6 846.998 1400.44 835.76L1398.83 834.141C1385.29 820.509 1385.9 799.046 1400.18 786.202C1407.91 779.256 1418.06 776.252 1427.89 777.115C1427.54 767.729 1431.27 758.262 1438.99 751.316C1453.28 738.472 1475.84 739.11 1489.38 752.741L1490.99 754.36C1502.77 766.216 1503.84 783.996 1494.52 796.878C1495.37 797.588 1496.2 798.343 1496.99 799.143L1498.6 800.762Z" fill="#111111"/>
<path fill-rule="evenodd" clip-rule="evenodd" d="M1576.74 905.621C1570.41 915.15 1560.09 921.808 1548.18 923.226C1546.84 929.202 1544.01 934.964 1539.63 939.979L1537.72 942.159C1525.09 956.607 1503.72 960.117 1486.97 951.809C1486.25 952.807 1485.47 953.783 1484.64 954.731L1482.74 956.911C1468.2 973.544 1442.07 975.681 1424.75 961.977C1414.85 954.147 1409.77 942.684 1409.94 931.193C1404.44 934.044 1398.19 935.655 1391.57 935.655H1385.75C1369.39 935.655 1355.33 925.839 1349.13 911.776C1344.77 918.183 1342.22 925.921 1342.22 934.255V938.807C1342.22 960.897 1360.13 978.805 1382.22 978.805H1388.04C1392.69 978.805 1397.16 978.009 1401.32 976.548C1396.71 991.193 1401.4 1007.74 1414.4 1018.02C1431.72 1031.72 1457.86 1029.58 1472.39 1012.95L1474.3 1010.77C1475.13 1009.82 1475.9 1008.85 1476.62 1007.85C1493.37 1016.16 1514.75 1012.65 1527.37 998.198L1529.28 996.017C1536.71 987.513 1539.67 976.865 1538.48 966.657H1539.87C1561.97 966.657 1579.87 948.749 1579.87 926.659V921.168C1579.87 915.654 1578.76 910.4 1576.74 905.621Z" fill="#111111"/>
<path d="M1327.5 894.443C1339.05 900.763 1331.95 880.33 1325.58 866.632C1319.2 852.935 1305.41 827.167 1284.24 827.167C1266.89 827.167 1234.02 887.628 1241.72 893.316C1247.88 897.867 1262.34 886.713 1271.96 879.55C1274.84 885.87 1279.2 896.412 1286.13 896.918C1293.06 897.423 1297.1 885.238 1302.55 879.55C1304.48 881.657 1318.26 889.386 1327.5 894.443Z" fill="#111111"/>
<path fill-rule="evenodd" clip-rule="evenodd" d="M1022.22 942.192C1022.22 926.186 1035.2 913.21 1051.21 913.21H1052.07C1068.08 913.21 1081.05 926.186 1081.05 942.192C1081.05 943.559 1080.96 944.905 1080.78 946.222C1093.05 949.592 1102.06 960.829 1102.06 974.171C1102.06 990.178 1089.09 1003.15 1073.08 1003.15H1072.22C1063.62 1003.15 1055.9 999.409 1050.59 993.463C1045.28 999.409 1037.56 1003.15 1028.96 1003.15H1028.09C1012.09 1003.15 999.113 990.178 999.113 974.171C999.113 960.1 1009.14 948.372 1022.44 945.741C1022.3 944.578 1022.22 943.393 1022.22 942.192Z" fill="#111111"/>
<path fill-rule="evenodd" clip-rule="evenodd" d="M1088.53 1026.36C1078.46 1037.88 1060.59 1039.52 1048.59 1030.03C1036.6 1020.55 1035.04 1003.53 1045.1 992.015L1046.06 990.917C1046.79 990.076 1047.57 989.288 1048.38 988.553C1041.53 978.882 1041.92 965.637 1050.22 956.14L1051.18 955.042C1061.24 943.53 1079.12 941.886 1091.11 951.371C1097.6 956.501 1101.03 963.834 1101.23 971.309C1108.99 970.128 1117.2 972.003 1123.68 977.132C1135.68 986.617 1137.24 1003.64 1127.18 1015.15L1126.22 1016.25C1117.46 1026.27 1102.79 1028.81 1091.23 1023.06C1090.69 1023.81 1090.11 1024.55 1089.49 1025.27L1088.53 1026.36Z" fill="#111111"/>
<path fill-rule="evenodd" clip-rule="evenodd" d="M1081.31 933.186C1081.31 917.002 1094.43 903.883 1110.61 903.883H1111.49C1127.67 903.883 1140.79 917.002 1140.79 933.186C1140.79 934.569 1140.7 935.93 1140.51 937.261C1152.92 940.669 1162.04 952.031 1162.04 965.521C1162.04 981.705 1148.92 994.825 1132.73 994.825H1131.86C1123.17 994.825 1115.36 991.04 1109.99 985.028C1104.62 991.04 1096.81 994.825 1088.12 994.825H1087.25C1071.06 994.825 1057.94 981.705 1057.94 965.521C1057.94 951.294 1068.08 939.435 1081.53 936.775C1081.38 935.599 1081.31 934.401 1081.31 933.186Z" fill="#111111"/>
<path fill-rule="evenodd" clip-rule="evenodd" d="M1070.48 893.419C1070.48 877.235 1083.6 864.115 1099.78 864.115H1100.66C1116.84 864.115 1129.96 877.235 1129.96 893.419C1129.96 894.802 1129.87 896.162 1129.68 897.494C1142.09 900.902 1151.21 912.263 1151.21 925.754C1151.21 941.938 1138.09 955.057 1121.9 955.057H1121.03C1112.33 955.057 1104.52 951.272 1099.16 945.26C1093.79 951.272 1085.98 955.057 1077.29 955.057H1076.41C1060.23 955.057 1047.11 941.938 1047.11 925.754C1047.11 911.527 1057.25 899.667 1070.7 897.008C1070.55 895.831 1070.48 894.634 1070.48 893.419Z" fill="#111111"/>
<path fill-rule="evenodd" clip-rule="evenodd" d="M1027.96 904.866C1027.96 891.587 1038.73 880.822 1052.01 880.822H1052.72C1066 880.822 1076.77 891.587 1076.77 904.866C1076.77 906.001 1076.69 907.117 1076.54 908.21C1086.72 911.006 1094.2 920.328 1094.2 931.398C1094.2 944.677 1083.43 955.442 1070.16 955.442H1069.44C1062.3 955.442 1055.9 952.336 1051.49 947.403C1047.09 952.336 1040.68 955.442 1033.55 955.442H1032.83C1019.55 955.442 1008.79 944.677 1008.79 931.398C1008.79 919.724 1017.11 909.993 1028.14 907.811C1028.02 906.846 1027.96 905.863 1027.96 904.866Z" fill="#111111"/>
<path fill-rule="evenodd" clip-rule="evenodd" d="M1106.32 881.615C1115.6 890.96 1115.19 905.675 1105.39 914.481C1095.6 923.286 1080.13 922.849 1070.85 913.504L1069.74 912.394C1069.1 911.744 1068.5 911.068 1067.95 910.37C1058.53 914.963 1046.68 913.313 1039.02 905.608L1037.92 904.499C1028.64 895.153 1029.05 880.439 1038.85 871.633C1044.15 866.871 1051.1 864.812 1057.84 865.404C1057.6 858.969 1060.16 852.479 1065.46 847.717C1075.25 838.911 1090.72 839.348 1100 848.694L1101.1 849.804C1109.18 857.932 1109.91 870.121 1103.52 878.952C1104.11 879.439 1104.67 879.957 1105.22 880.505L1106.32 881.615Z" fill="#111111"/>
<path fill-rule="evenodd" clip-rule="evenodd" d="M1159.13 953.308C1154.77 959.502 1148.08 963.931 1140.32 965.311C1139.41 969.564 1137.4 973.677 1134.27 977.256L1133.31 978.354C1124.56 988.371 1109.89 990.917 1098.32 985.161C1097.79 985.916 1097.2 986.654 1096.58 987.37L1095.62 988.467C1085.56 999.98 1067.68 1001.62 1055.69 992.139C1048.68 986.593 1045.23 978.47 1045.59 970.379C1041.39 972.744 1036.54 974.093 1031.38 974.093H1030.51C1019.09 974.093 1009.21 967.483 1004.49 957.878C1001.1 962.62 999.113 968.424 999.113 974.694C999.113 990.7 1012.09 1003.68 1028.1 1003.68H1028.96C1032.82 1003.68 1036.5 1002.92 1039.86 1001.56C1036.38 1011.75 1039.47 1023.34 1048.59 1030.56C1060.59 1040.04 1078.46 1038.4 1088.53 1026.89L1089.49 1025.79C1090.11 1025.07 1090.69 1024.33 1091.23 1023.58C1102.79 1029.33 1117.46 1026.79 1126.22 1016.77L1127.18 1015.67C1132.35 1009.76 1134.45 1002.39 1133.64 995.334C1149.41 994.854 1162.04 981.924 1162.04 966.044C1162.04 961.48 1160.99 957.159 1159.13 953.308Z" fill="#111111"/>
<path fill-rule="evenodd" clip-rule="evenodd" d="M107.555 936.803C107.555 920.796 120.531 907.821 136.537 907.821H137.403C153.409 907.821 166.384 920.796 166.384 936.803C166.384 938.17 166.29 939.516 166.106 940.833C178.379 944.203 187.395 955.44 187.395 968.782C187.395 984.788 174.419 997.764 158.413 997.764H157.547C148.95 997.764 141.227 994.02 135.919 988.074C130.612 994.02 122.889 997.764 114.291 997.764H113.425C97.4193 997.764 84.4437 984.788 84.4437 968.782C84.4437 954.711 94.4714 942.982 107.77 940.352C107.628 939.189 107.555 938.004 107.555 936.803Z" fill="#111111"/>
<path fill-rule="evenodd" clip-rule="evenodd" d="M173.856 1020.97C163.794 1032.49 145.916 1034.13 133.924 1024.65C121.931 1015.16 120.366 998.138 130.428 986.626L131.388 985.528C132.122 984.687 132.899 983.899 133.712 983.164C126.862 973.493 127.251 960.247 135.551 950.751L136.51 949.653C146.572 938.141 164.45 936.497 176.442 945.982C182.928 951.111 186.364 958.445 186.56 965.92C194.321 964.739 202.528 966.614 209.013 971.743C221.006 981.228 222.571 998.25 212.509 1009.76L211.55 1010.86C202.795 1020.88 188.122 1023.42 176.558 1017.67C176.022 1018.42 175.441 1019.16 174.816 1019.88L173.856 1020.97Z" fill="#111111"/>
<path fill-rule="evenodd" clip-rule="evenodd" d="M166.641 927.797C166.641 911.613 179.761 898.493 195.945 898.493H196.821C213.005 898.493 226.124 911.613 226.124 927.797C226.124 929.18 226.028 930.54 225.843 931.872C238.252 935.28 247.368 946.641 247.368 960.132C247.368 976.316 234.249 989.436 218.065 989.436H217.189C208.496 989.436 200.687 985.651 195.321 979.639C189.954 985.651 182.145 989.436 173.452 989.436H172.577C156.393 989.436 143.273 976.316 143.273 960.132C143.273 945.905 153.412 934.046 166.859 931.386C166.715 930.21 166.641 929.012 166.641 927.797Z" fill="#111111"/>
<path fill-rule="evenodd" clip-rule="evenodd" d="M155.809 888.03C155.809 871.846 168.929 858.726 185.113 858.726H185.989C202.173 858.726 215.292 871.846 215.292 888.03C215.292 889.412 215.196 890.773 215.011 892.105C227.42 895.512 236.536 906.874 236.536 920.365C236.536 936.549 223.417 949.668 207.233 949.668H206.357C197.664 949.668 189.855 945.883 184.489 939.871C179.122 945.883 171.313 949.668 162.62 949.668H161.745C145.561 949.668 132.441 936.549 132.441 920.365C132.441 906.137 142.58 894.278 156.027 891.619C155.883 890.442 155.809 889.245 155.809 888.03Z" fill="#111111"/>
<path fill-rule="evenodd" clip-rule="evenodd" d="M113.293 899.477C113.293 886.198 124.058 875.433 137.337 875.433H138.055C151.334 875.433 162.099 886.198 162.099 899.477C162.099 900.612 162.021 901.728 161.869 902.821C172.05 905.617 179.53 914.939 179.53 926.009C179.53 939.288 168.765 950.053 155.486 950.053H154.768C147.635 950.053 141.228 946.947 136.824 942.014C132.421 946.947 126.014 950.053 118.881 950.053H118.163C104.884 950.053 94.1188 939.288 94.1188 926.009C94.1188 914.335 102.438 904.604 113.471 902.422C113.353 901.457 113.293 900.474 113.293 899.477Z" fill="#111111"/>
<path fill-rule="evenodd" clip-rule="evenodd" d="M191.651 876.226C200.934 885.571 200.518 900.286 190.722 909.091C180.926 917.897 165.459 917.46 156.177 908.115L155.074 907.005C154.429 906.355 153.83 905.679 153.279 904.981C143.862 909.574 132.006 907.924 124.353 900.219L123.25 899.109C113.968 889.764 114.384 875.05 124.18 866.244C129.477 861.482 136.433 859.423 143.173 860.014C142.934 853.58 145.488 847.09 150.786 842.328C160.582 833.522 176.048 833.959 185.331 843.305L186.433 844.414C194.507 852.543 195.243 864.732 188.853 873.563C189.438 874.05 190.004 874.568 190.549 875.116L191.651 876.226Z" fill="#111111"/>
<path fill-rule="evenodd" clip-rule="evenodd" d="M244.464 947.919C240.104 954.113 233.406 958.542 225.653 959.922C224.736 964.175 222.732 968.287 219.603 971.867L218.644 972.965C209.889 982.982 195.216 985.528 183.652 979.772C183.116 980.527 182.535 981.265 181.91 981.981L180.95 983.078C170.889 994.591 153.01 996.235 141.018 986.75C134.006 981.204 130.559 973.081 130.916 964.99C126.718 967.355 121.872 968.704 116.71 968.704H115.844C104.419 968.704 94.5387 962.094 89.8184 952.489C86.4346 957.231 84.4438 963.035 84.4438 969.305C84.4438 985.311 97.4194 998.286 113.425 998.286H114.291C118.147 998.286 121.826 997.534 125.191 996.167C121.71 1006.37 124.797 1017.95 133.924 1025.17C145.916 1034.65 163.795 1033.01 173.856 1021.5L174.816 1020.4C175.441 1019.68 176.022 1018.95 176.558 1018.19C188.122 1023.95 202.795 1021.4 211.55 1011.38L212.509 1010.29C217.679 1004.37 219.779 996.999 218.973 989.944C234.737 989.465 247.368 976.535 247.368 960.655C247.368 956.091 246.325 951.77 244.464 947.919Z" fill="#111111"/>
<rect x="378.251" y="890.782" width="7.93461" height="37.406" fill="#111111"/>
<rect x="378.272" y="876.952" width="7.93461" height="37.406" fill="#111111"/>
<path d="M381.987 870.379L404.565 909.485H359.409L381.987 870.379Z" fill="#111111"/>
<path d="M382.008 855.643L401.15 888.798H362.866L382.008 855.643Z" fill="#111111"/>
<path d="M389.366 868.27H374.654L372.483 871.887H391.537L389.366 868.27Z" fill="#111111"/>
<path d="M392.632 888.77H371.371L369.348 892.146H394.672L392.632 888.77Z" fill="#111111"/>
<path d="M382.26 842.041L397.476 868.395H367.044L382.26 842.041Z" fill="#111111"/>
<path d="M382.26 830.874L394.712 852.442H369.807L382.26 830.874Z" fill="#111111"/>
<path d="M388.16 852.352H376.342L374.172 855.969H390.331L388.16 852.352Z" fill="#111111"/>
<rect x="255.753" y="875.05" width="9.95633" height="46.937" fill="#111111"/>
<rect x="255.779" y="857.696" width="9.95633" height="46.937" fill="#111111"/>
<path d="M260.441 849.448L288.772 898.518H232.11L260.441 849.448Z" fill="#111111"/>
<path d="M260.467 830.958L284.487 872.561H236.448L260.467 830.958Z" fill="#111111"/>
<path d="M269.7 846.801H251.24L248.516 851.341H272.424L269.7 846.801Z" fill="#111111"/>
<path d="M273.799 872.525H247.12L244.582 876.762H276.358L273.799 872.525Z" fill="#111111"/>
<path d="M260.784 813.89L279.876 846.959H241.691L260.784 813.89Z" fill="#111111"/>
<path d="M260.783 799.877L276.409 826.941H245.158L260.783 799.877Z" fill="#111111"/>
<path d="M268.187 826.827H253.358L250.634 831.367H270.911L268.187 826.827Z" fill="#111111"/>
<rect x="316.543" y="818.566" width="16.2977" height="76.8318" fill="#111111"/>
<rect x="316.587" y="790.159" width="16.2977" height="76.8318" fill="#111111"/>
<path d="M324.218 776.658L370.593 856.982H277.843L324.218 776.658Z" fill="#111111"/>
<path d="M324.261 746.391L363.579 814.492H284.943L324.261 746.391Z" fill="#111111"/>
<path d="M339.374 772.326H309.156L304.697 779.756H343.833L339.374 772.326Z" fill="#111111"/>
<path d="M346.083 814.433H302.412L298.257 821.368H350.273L346.083 814.433Z" fill="#111111"/>
<path d="M324.778 718.452L356.031 772.583H293.525L324.778 718.452Z" fill="#111111"/>
<path d="M324.778 695.515L350.355 739.816H299.201L324.778 695.515Z" fill="#111111"/>
<path d="M336.897 739.63H312.624L308.165 747.061H341.356L336.897 739.63Z" fill="#111111"/>
<rect x="14.1615" y="766.832" width="21.5639" height="101.658" fill="#111111"/>
<rect x="14.219" y="729.246" width="21.5639" height="101.658" fill="#111111"/>
<path d="M24.3158 711.382L85.6761 817.662H-37.0446L24.3158 711.382Z" fill="#111111"/>
<path d="M24.3729 671.335L76.3958 761.441H-27.65L24.3729 671.335Z" fill="#111111"/>
<path d="M44.3698 705.65H4.38695L-1.51215 715.482H50.2688L44.3698 705.65Z" fill="#111111"/>
<path d="M53.246 761.364H-4.53597L-10.0331 770.54H58.7898L53.246 761.364Z" fill="#111111"/>
<path d="M25.0574 634.368L66.409 705.991H-16.2941L25.0574 634.368Z" fill="#111111"/>
<path d="M25.0573 604.019L58.8994 662.635H-8.78476L25.0573 604.019Z" fill="#111111"/>
<path d="M41.0925 662.39H8.97521L3.07611 672.222H46.9916L41.0925 662.39Z" fill="#111111"/>
<path fill-rule="evenodd" clip-rule="evenodd" d="M401.792 968.243C401.792 952.237 414.767 939.262 430.773 939.262H431.639C447.645 939.262 460.621 952.237 460.621 968.243C460.621 969.611 460.526 970.956 460.343 972.273C472.615 975.644 481.631 986.88 481.631 1000.22C481.631 1016.23 468.656 1029.2 452.65 1029.2H451.784C443.186 1029.2 435.463 1025.46 430.156 1019.51C424.848 1025.46 417.125 1029.2 408.528 1029.2H407.662C391.656 1029.2 378.68 1016.23 378.68 1000.22C378.68 986.152 388.708 974.423 402.007 971.793C401.865 970.629 401.792 969.445 401.792 968.243Z" fill="#111111"/>
<path fill-rule="evenodd" clip-rule="evenodd" d="M460.878 959.238C460.878 943.054 473.998 929.934 490.181 929.934H491.057C507.241 929.934 520.361 943.054 520.361 959.238C520.361 960.621 520.265 961.981 520.08 963.313C532.488 966.721 541.605 978.082 541.605 991.573C541.605 1007.76 528.485 1020.88 512.301 1020.88H511.425C502.733 1020.88 494.924 1017.09 489.557 1011.08C484.191 1017.09 476.382 1020.88 467.689 1020.88H466.813C450.629 1020.88 437.51 1007.76 437.51 991.573C437.51 977.346 447.649 965.486 461.095 962.827C460.952 961.651 460.878 960.453 460.878 959.238Z" fill="#111111"/>
<path fill-rule="evenodd" clip-rule="evenodd" d="M450.046 919.47C450.046 903.286 463.166 890.167 479.35 890.167H480.225C496.409 890.167 509.529 903.286 509.529 919.47C509.529 920.853 509.433 922.214 509.248 923.545C521.656 926.953 530.773 938.315 530.773 951.805C530.773 967.989 517.653 981.109 501.469 981.109H500.593C491.901 981.109 484.092 977.324 478.725 971.312C473.359 977.324 465.55 981.109 456.857 981.109H455.981C439.797 981.109 426.678 967.989 426.678 951.805C426.678 937.578 436.817 925.719 450.263 923.059C450.12 921.883 450.046 920.685 450.046 919.47Z" fill="#111111"/>
<path fill-rule="evenodd" clip-rule="evenodd" d="M407.529 930.918C407.529 917.639 418.294 906.874 431.573 906.874H432.292C445.571 906.874 456.336 917.639 456.336 930.918C456.336 932.052 456.257 933.169 456.105 934.261C466.286 937.058 473.767 946.38 473.767 957.449C473.767 970.728 463.002 981.493 449.723 981.493H449.004C441.872 981.493 435.464 978.387 431.061 973.454C426.658 978.387 420.25 981.493 413.118 981.493H412.399C399.12 981.493 388.355 970.728 388.355 957.449C388.355 945.775 396.675 936.045 407.708 933.863C407.59 932.898 407.529 931.915 407.529 930.918Z" fill="#111111"/>
<path fill-rule="evenodd" clip-rule="evenodd" d="M485.888 907.667C495.17 917.012 494.754 931.726 484.958 940.532C475.162 949.338 459.696 948.901 450.413 939.555L449.311 938.445C448.665 937.795 448.067 937.12 447.515 936.422C438.099 941.015 426.242 939.365 418.589 931.66L417.487 930.55C408.204 921.205 408.62 906.49 418.416 897.685C423.714 892.923 430.67 890.864 437.409 891.455C437.17 885.021 439.724 878.53 445.022 873.768C454.818 864.963 470.284 865.4 479.567 874.745L480.669 875.855C488.743 883.983 489.48 896.173 483.09 905.004C483.675 905.491 484.241 906.009 484.785 906.557L485.888 907.667Z" fill="#111111"/>
<rect x="195.158" y="821.453" width="13.5897" height="64.0655" fill="#111111"/>
<rect x="195.195" y="797.766" width="13.5897" height="64.0655" fill="#111111"/>
<path d="M201.558 786.508L240.227 853.485H162.888L201.558 786.508Z" fill="#111111"/>
<path d="M201.594 761.27L234.379 818.055H168.809L201.594 761.27Z" fill="#111111"/>
<path d="M214.196 782.895H188.999L185.281 789.091H217.914L214.196 782.895Z" fill="#111111"/>
<path d="M219.79 818.006H183.375L179.911 823.789H223.283L219.79 818.006Z" fill="#111111"/>
<path d="M202.025 737.973L228.085 783.11H175.965L202.025 737.973Z" fill="#111111"/>
<path d="M202.025 718.847L223.353 755.787H180.698L202.025 718.847Z" fill="#111111"/>
<path d="M212.131 755.633H191.89L188.173 761.829H215.848L212.131 755.633Z" fill="#111111"/>
<rect x="114.013" y="846.367" width="6.97905" height="32.9012" fill="#111111"/>
<rect x="114.032" y="834.203" width="6.97905" height="32.9012" fill="#111111"/>
<path d="M117.3 828.421L137.159 862.818H97.4408L117.3 828.421Z" fill="#111111"/>
<path d="M117.318 815.46L134.155 844.622H100.481L117.318 815.46Z" fill="#111111"/>
<path d="M123.79 826.566H110.85L108.941 829.748H125.699L123.79 826.566Z" fill="#111111"/>
<path d="M126.663 844.597H107.962L106.183 847.567H128.457L126.663 844.597Z" fill="#111111"/>
<path d="M117.54 803.496L130.923 826.676H104.157L117.54 803.496Z" fill="#111111"/>
<path d="M117.54 793.674L128.493 812.644H106.587L117.54 793.674Z" fill="#111111"/>
<path d="M122.73 812.565H112.335L110.426 815.747H124.639L122.73 812.565Z" fill="#111111"/>
<rect x="1578.82" y="690.84" width="23.9911" height="128.153" fill="#111111"/>
<rect x="1578.88" y="643.458" width="23.9911" height="128.153" fill="#111111"/>
<path d="M1590.11 620.939L1658.38 754.917H1521.85L1590.11 620.939Z" fill="#111111"/>
<path d="M1590.18 570.454L1648.06 684.044H1532.3L1590.18 570.454Z" fill="#111111"/>
<path d="M1612.42 613.712H1567.94L1561.38 626.107H1618.99L1612.42 613.712Z" fill="#111111"/>
<path d="M1622.3 683.947H1558.01L1551.9 695.515H1628.47L1622.3 683.947Z" fill="#111111"/>
<path d="M1590.94 523.853L1636.94 614.143H1544.93L1590.94 523.853Z" fill="#111111"/>
<path d="M1590.94 485.594L1628.59 559.487H1553.29L1590.94 485.594Z" fill="#111111"/>
<path d="M1608.78 559.177H1573.05L1566.48 571.572H1615.34L1608.78 559.177Z" fill="#111111"/>
<rect x="1363.48" y="784.185" width="12.4113" height="58.5106" fill="#111111"/>
<rect x="1363.52" y="762.552" width="12.4113" height="58.5106" fill="#111111"/>
<path d="M1369.33 752.271L1404.65 813.441H1334.01L1369.33 752.271Z" fill="#111111"/>
<path d="M1369.36 729.221L1399.3 781.083H1339.42L1369.36 729.221Z" fill="#111111"/>
<path d="M1380.87 748.971H1357.86L1354.46 754.63H1384.27L1380.87 748.971Z" fill="#111111"/>
<path d="M1385.98 781.038H1352.72L1349.56 786.319H1389.17L1385.98 781.038Z" fill="#111111"/>
<path d="M1369.76 707.944L1393.56 749.168H1345.96L1369.76 707.944Z" fill="#111111"/>
<path d="M1369.76 690.477L1389.23 724.214H1350.28L1369.76 690.477Z" fill="#111111"/>
<path d="M1378.99 724.072H1360.5L1357.1 729.731H1382.38L1378.99 724.072Z" fill="#111111"/>
<rect x="1156.19" y="830.663" width="12.4113" height="58.5106" fill="#111111"/>
<rect x="1156.23" y="809.03" width="12.4113" height="58.5106" fill="#111111"/>
<path d="M1162.04 798.749L1197.35 859.919H1126.72L1162.04 798.749Z" fill="#111111"/>
<path d="M1162.07 775.699L1192.01 827.561H1132.13L1162.07 775.699Z" fill="#111111"/>
<path d="M1173.58 795.449H1150.57L1147.17 801.108H1176.98L1173.58 795.449Z" fill="#111111"/>
<path d="M1178.69 827.516H1145.43L1142.27 832.797H1181.88L1178.69 827.516Z" fill="#111111"/>
<path d="M1162.46 754.422L1186.26 795.646H1138.66L1162.46 754.422Z" fill="#111111"/>
<path d="M1162.46 736.955L1181.94 770.692H1142.99L1162.46 736.955Z" fill="#111111"/>
<path d="M1171.69 770.55H1153.21L1149.81 776.209H1175.09L1171.69 770.55Z" fill="#111111"/>
<rect x="1264.71" y="766.035" width="16.5783" height="78.155" fill="#111111"/>
<rect x="1264.76" y="737.139" width="16.5783" height="78.155" fill="#111111"/>
<path d="M1272.52 723.405L1319.69 805.113H1225.35L1272.52 723.405Z" fill="#111111"/>
<path d="M1272.56 692.617L1312.56 761.891H1232.57L1272.56 692.617Z" fill="#111111"/>
<path d="M1287.94 718.998H1257.2L1252.66 726.557H1292.47L1287.94 718.998Z" fill="#111111"/>
<path d="M1294.76 761.831H1250.34L1246.11 768.886H1299.02L1294.76 761.831Z" fill="#111111"/>
<path d="M1273.09 664.197L1304.88 719.261H1241.3L1273.09 664.197Z" fill="#111111"/>
<path d="M1273.09 640.865L1299.11 685.929H1247.07L1273.09 640.865Z" fill="#111111"/>
<path d="M1285.42 685.74H1260.73L1256.19 693.299H1289.95L1285.42 685.74Z" fill="#111111"/>
<rect x="1218.36" y="847.737" width="5.87502" height="27.6965" fill="#111111"/>
<rect x="1218.38" y="837.496" width="5.87502" height="27.6965" fill="#111111"/>
<path d="M1221.13 832.629L1237.85 861.585H1204.41L1221.13 832.629Z" fill="#111111"/>
<path d="M1221.15 821.719L1235.32 846.268H1206.97L1221.15 821.719Z" fill="#111111"/>
<path d="M1226.59 831.068H1215.7L1214.09 833.746H1228.2L1226.59 831.068Z" fill="#111111"/>
<path d="M1229.01 846.247H1213.27L1211.77 848.747H1230.52L1229.01 846.247Z" fill="#111111"/>
<path d="M1221.33 811.647L1232.6 831.161H1210.07L1221.33 811.647Z" fill="#111111"/>
<path d="M1221.33 803.379L1230.55 819.348H1212.11L1221.33 803.379Z" fill="#111111"/>
<path d="M1225.7 819.282H1216.95L1215.34 821.96H1227.31L1225.7 819.282Z" fill="#111111"/>
<rect x="1487.09" y="792.695" width="13.0098" height="61.3318" fill="#111111"/>
<rect x="1487.12" y="770.019" width="13.0098" height="61.3318" fill="#111111"/>
<path d="M1493.21 759.242L1530.23 823.361H1456.19L1493.21 759.242Z" fill="#111111"/>
<path d="M1493.25 735.081L1524.63 789.443H1461.86L1493.25 735.081Z" fill="#111111"/>
<path d="M1505.31 755.783H1481.19L1477.63 761.715H1508.87L1505.31 755.783Z" fill="#111111"/>
<path d="M1510.67 789.396H1475.81L1472.49 794.932H1514.01L1510.67 789.396Z" fill="#111111"/>
<path d="M1493.66 712.778L1518.61 755.989H1468.71L1493.66 712.778Z" fill="#111111"/>
<path d="M1493.66 694.468L1514.08 729.832H1473.24L1493.66 694.468Z" fill="#111111"/>
<path d="M1503.33 729.684H1483.96L1480.4 735.616H1506.89L1503.33 729.684Z" fill="#111111"/>
<rect x="1335.73" y="837.845" width="9.9123" height="46.7294" fill="#111111"/>
<rect x="1335.76" y="820.568" width="9.9123" height="46.7294" fill="#111111"/>
<path d="M1340.4 812.356L1368.61 861.21H1312.19L1340.4 812.356Z" fill="#111111"/>
<path d="M1340.43 793.948L1364.34 835.367H1316.51L1340.43 793.948Z" fill="#111111"/>
<path d="M1349.62 809.721H1331.24L1328.53 814.24H1352.33L1349.62 809.721Z" fill="#111111"/>
<path d="M1353.7 835.331H1327.14L1324.61 839.549H1356.25L1353.7 835.331Z" fill="#111111"/>
<path d="M1340.74 776.955L1359.75 809.878H1321.73L1340.74 776.955Z" fill="#111111"/>
<path d="M1340.74 763.004L1356.3 789.948H1325.18L1340.74 763.004Z" fill="#111111"/>
<path d="M1348.11 789.836H1333.35L1330.64 794.355H1350.82L1348.11 789.836Z" fill="#111111"/>
</g>
<defs>
<clipPath id="clip0_3_2">
<rect width="1600" height="960" fill="white"/>
</clipPath>
</defs>
</svg>
